<?xml version="1.0" encoding="UTF-8"?>
<svg id="Layer_2" data-name="Layer 2" xmlns="http://www.w3.org/2000/svg" xmlns:xlink="http://www.w3.org/1999/xlink" viewBox="0 0 2448 929.56">
  <defs>
    <style>
      .cls-1, .cls-2 {
        fill: #fff;
      }

      .cls-2 {
        fill-rule: evenodd;
      }

      .cls-3 {
        filter: url(#luminosity-invert);
      }

      .cls-4 {
        filter: url(#luminosity-noclip);
      }

      .cls-5 {
        mask: url(#mask);
      }
    </style>
    <filter id="luminosity-invert" color-interpolation-filters="sRGB" filterUnits="userSpaceOnUse">
      <feColorMatrix values="-1 0 0 0 1 0 -1 0 0 1 0 0 -1 0 1 0 0 0 1 0"/>
    </filter>
    <mask id="mask" x="1308.45" y="426.69" width="136.63" height="185.43" maskUnits="userSpaceOnUse">
      <g class="cls-3">
        <g class="cls-4">
          <path class="cls-2" d="M1362.78,426.85c-6.22,.38-11.8,1.12-17.54,2.62-2.79,.73-5.12,1.49-7.66,2.39-2.26,.79-3.04,2.5-4.9,5.15-5.32,7.57-10.21,16.12-14.23,25.92-8.35,20.35-12.02,45.11-8.88,69.48,3.99,30.97,20.21,60.97,46.34,74.32,9.41,4.81,22.49,6.73,34.15,4.44,11.48-2.25,19.99-8.21,26.28-13.89,.96-.87,1.33-1.52,2.44-2.45,1.44-1.22,5.7-6.59,6.93-8.25,2.59-3.51,5.61-7.96,7.75-12.32,10.63-21.6,13.51-43.24,10.53-67.88-2.23-18.42-8.73-36.25-19.71-50.51-15.14-19.65-34.78-30.64-61.48-29.01Z"/>
        </g>
      </g>
    </mask>
  </defs>
  <g id="Layer_1-2" data-name="Layer 1">
    <g>
      <path class="cls-1" d="M1903.81,256.36c-2.35,4.54-9.25,13.06-12.45,17.14-5.39,6.87-11,13.58-15.85,20.85l-3.23,5.09c-.2,.32-.5,.73-.68,1.03l-3.53,6.49c-.38,.75-.79,1.53-1.14,2.28-.21,.45-.32,.77-.5,1.2-1.42,3.36-3.34,7.6-3.74,11.29h16.4c5.68,0,10.66-.25,16.16-.24,2.8,0,4.88-.25,7.83-.24,1.64,0,2.71-.06,4.01-.21,4.31-.5,12.12-.16,15.96-.7l29.27-1.3c.84-.07,1.03-.21,1.94-.24,1.33-.04,2.88,.11,4.18-.03,1.2-.13,2.09-.21,3.65-.2,1.56,0,2.37-.27,3.9-.26,2.66,.02,5.43-.26,7.89-.47,2.51-.21,5.58,0,8.03-.32l7.82-.43c1.59,0,2.51-.05,3.77-.2l11.93-.54c5.11-.38,10.31-.44,15.67-.72l7.78-.35c2.65-.4,14.85-.4,17.92-.64,.84-.07,1.03-.21,1.94-.24,1.38-.04,3.05,.03,4.09-.13,2.33-.36,5.42-.11,7.9-.1,1.56,0,2.37-.26,3.91-.26,1.39,0,2.8,.03,4.18,.02,1.5-.02,2.18-.27,3.9-.26h28.89c1.52,0,2.34,.26,3.91,.25,1.39,0,2.78,0,4.17,0,1.56,0,2.37,.27,3.9,.25,1.72-.02,2.38,.24,3.93,.24l-.24,28.64c0,3.32-.24,6.05-.24,9.55,0,13.17-.24,25.67-.24,38.68,0,3.42-.25,6.05-.24,9.3,0,22.6-.49,45.04-.49,67.56,0,18.94-.73,38.25-.73,57.28,0,6.53-.03,13.06,0,19.58,0,1.85-.26,2.7-.25,4.4,.02,4.54,.43,10.41-.03,14.72-.62,5.83-.21,13.05-.21,19.32,0,12.86-.49,25.57-.49,38.43s-.24,25.39-.24,38.43c0,3.42-.24,5.93-.24,9.3l-.24,38.68c0,3.44-.24,6.13-.24,9.55v14.44c0,1.93-.26,2.91-.25,4.64,.02,3.88,.28,13.22,0,16.93-.55,7.02,.13,14.8-.23,21.79-.07,1.44-.25,2.57-.25,4.38v24.24c0,3.51-.24,6.15-.24,9.55,0,12.99-.24,25.52-.24,38.68,0,3.42-.25,5.93-.24,9.3,0,3.26,0,6.53,0,9.79,0,1.79-.26,2.71-.25,4.65,.07,17.82-.28,35.54-.24,53.37,1.35-.24,2.48-1.07,3.57-1.76,1.13-.71,2.04-1.32,3.07-2.09,6.54-4.86,12.85-12.86,17.09-19.73l10.37-17.06c.15-.27,.26-.51,.43-.79,.2-.33,.23-.35,.46-.76l4.43-7.56c3.55-5.91,7.6-11.64,10.99-17.65,.34-.6,.55-1.08,.91-1.8,3.7-7.4,3.29-8.93,4.38-16.76,.24-1.75,.36-3.28,.35-5.11,0-1.96,.21-3.3,.25-4.88V314.37c2.58,0,5.27,.19,7.85-.01,8.11-.64,16.55-.61,24.71-.71,3.37-.04,7.17-.5,10.76-.5l7.85-.24c1.12-.03,1.53-.25,2.67-.26,1.92-.02,16.18-.43,18.83-.83,1.77-.26,3.62-.11,5.42-.13,1.3-.02,1.54-.23,2.68-.26l5.37-.24c4.3,.02,8.87-.5,13-.73,2.53-.14,5.76,0,8.24-.38,2.51-.39,6.99,0,10.73-.53,1.78-.25,3.7,0,5.51-.06,1.06-.03,1.42-.23,2.43-.26,.96-.03,2,.06,2.96,0,3.79-.19,11.89-.76,15.89-.73l8.1-.26c4.52-.36,9.12-.13,13.71-.49,1.71-.13,3.29-.23,5.36-.23,2.67,0,5.44,.2,8.1-.01,4.48-.35,9.4-.17,13.94-.22,1.72-.02,3.29-.25,5.38-.25h16.89c12,0,19.27,.89,25.31-8.52,1.4-2.18,2.93-4.9,4.14-7.14l7.8-12.99c4.72-7.69,10.09-15.18,15.08-22.61l10.54-17.67c.27-.69,.53-1.42,1.01-1.82-.08-.03-.19-.14-.24-.07-.05,.07-.17-.05-.24-.06-.06-.01-.16-.04-.23-.06-2.33-.48-5.01-.42-7.36-.72-1.44-.19-2.94-.01-4.41-.06-.91-.03-1.1-.17-1.94-.24-.68-.05-1.54-.02-2.23-.01l-8.43-.31c-1.28-.18-2.66-.18-4.3-.18-1.86,0-2.74-.25-4.4-.25-11.83-.02-23.67,0-35.5,0-6.08,0-11.33,.25-17.38,.24-3.03,0-5.38,.26-8.57,.24-1.79,0-2.52,.25-4.15,.25l-12.95,.47c-2.88,.23-5.71,.1-8.57,.26-.93,.05-.92,.19-1.96,.25l-6.25,.31c-4.32,.58-11.37,.66-16.53,1.33-2.69,.35-5.23,.3-8.11,.7-1.45,.2-2.72,.16-4.06,.36-6.78,.99-13.5,1.07-20.21,2.05-6.57,.95-13.38,1.18-20,2.03-1.4,.18-3.07,.21-4.37,.32-2.75,.24-5.42,.7-8.12,.72l-29.37,1.72c-9.99-.06-20.44,.1-30.1-1.18-.89-.12-1.04-.17-1.78-.37-1.91-.51-4.16-.76-5.91-1.65-1.53-.78-1.96-4.09-2.19-5.72-.15-1.04-.52-2.78-.62-3.8l-.76-12.75c-.01-.89-.15-1.25-.22-1.93-.47-4.49-.28-10.58-.28-15.19,0-3.06-.24-5.38-.24-8.57l.24-39.66c0-1.73,.26-2.72,.25-4.4-.01-2.94,0-5.88,0-8.81l.67-25.95c.44-3.33,.05-13.57,.06-17.64,0-1.56,.26-2.37,.25-4.15l.24-13.22c0-20.39,.51-41.19,.25-61.7l-.25-4.16c.02-2.62-.57-11.99-1.09-14.48l-.05-.24-24.71,2.2c-6,7.45-11.53,15.82-18.17,23.6-4.33,5.06-8.68,9.75-10.86,16.2-.16,.47-.31,.93-.44,1.48l-.99,5.35c-.72,5.01-.99,15.74-.33,20.38,.28,1.95-.04,4.03,.07,6.01,.05,1.04,.19,1.02,.25,1.96,.07,1.29,0,2.83,0,4.14,0,1.56,.26,2.37,.26,3.91-.02,5.42,.48,10.64,.48,16.17,0,8.05,.73,16.09,.73,24.24,0,1.39,0,2.77,0,4.16,0,1.62,.26,2.51,.25,4.15-.06,11.2,.73,21.72,.73,32.81,0,5.72,.24,10.69,.24,16.4,0,2.95,.25,5.15,.24,8.08,0,2.64-.19,6.04,.01,8.59,.2,2.51,.23,5.18,.23,8.05,0,3.03,.25,5.18,.24,8.08,0,2.68,.14,5.71,0,8.35-.25,4.92-.43,14.02-2.53,18.42-2.57,5.41-10.43,4.27-16.32,5.01-3.81,.48-19.53,1.97-23.03,2-.76,0-1.22,.12-1.71,.18-3.77,.47-10.05,1.02-13.69,1.06-4,.05-7.94,.53-11.74,.73l-12.17,.52c-1.32,.16-2.36,.21-4.02,.2-1.54,0-2.35,.27-3.91,.26l-7.9,.34c-.99,.15-2.76,.14-4.11,.14-1.53,0-2.35,.26-3.91,.26-2.83-.01-5.17,.14-8.08,.23l-15.89,.73c-2.68,.21-5.67-.13-8.1,.19-3.46,.46-19.38,.39-24.46,.79-5.6,.44-11.06,.27-16.67,.26-2.77,0-5.08,.25-8.08,.25-1.39,0-2.78-.01-4.17,0-1.53,0-2.2,.27-3.91,.26-3.04-.02-5.16,.24-8.08,.24-2.86,0-5.71,0-8.57,0Z"/>
      <g class="cls-5">
        <path class="cls-1" d="M1305.03,448.03l-1,1.39c-3.32,5.66-6.21,11.5-8.88,17.53l-7.61,21.46-2.65,11.78c-.5,2.53-1.2,5.06-1.4,7.6l-.76,4.89c-.5,4.36-1.24,8.86-1.2,13.19,.01,1.56-.24,2.06-.26,3.42-.02,1.22,0,2.46,0,3.68,0,4.78-.24,9.7,0,14.47,.03,.65,.32,2.88,.39,3.33,.17,1.19,.02,2.31,.11,3.52l1.31,9.76c.24,1.03,.38,2.33,.52,3.14l2.63,11.1c.02,.07,.03,.13,.05,.2,.02,.08,.1,.31,.12,.38,.16,.52,.17,.6,.35,1.33,.59,2.37,2.57,7.72,3.36,9.67l1.52,3.64c.25,.54,.45,.9,.62,1.32,2.57,6.27,6.61,13.19,10.63,18.58l10.76,13.01c2.07,2.34,8.16,7.23,10.68,9.12,2.73,2.05,5.85,3.89,8.85,5.55,.7,.39,1.69,.89,2.44,1.2l13.56,4.76c.9,.22,1.76,.4,2.81,.6,2.47,.45,7.7,1.13,9.82,1.12,7.38-.04,13.27-.14,20.3-1.57l8.73-2.34c.38-.14,.29-.11,.53-.19l2.15-.8c9.54-3.48,18.56-9.16,26.11-15.61l6.75-6.23c2.98-3.07,5.75-6.38,8.46-9.68,1.07-1.31,2.33-2.87,3.2-4.16l3.05-4.28c1.07-1.43,2.07-2.9,2.96-4.41,.45-.77,.88-1.37,1.31-2.12l1.4-2.26c.45-.76,.88-1.41,1.37-2.31l1.96-3.42c.28-.53,.41-.87,.65-1.31,3.09-5.6,5.73-11.33,8.14-17.35l5.15-14.44c.25-.69,.22-.9,.41-1.59l3.71-14.68c.56-3.35,1.16-5.06,1.65-9.15l.96-6.38c.65-5.49,.92-11.35,1.2-16.94,.32-6.21-.68-21.29-1.62-27.47l-2.84-15.5c-.26-1.04-.56-1.62-.83-2.86l-.52-1.91c-.02-.07-.03-.13-.05-.21-.12-.48-.03-.29-.18-.78l-1.77-5.31c-2.32-6.95-5.4-13.71-9.01-20.07-.3-.52-.35-.56-.65-1.06l-5.06-7.89c-.29-.4-.43-.55-.73-.98-1.94-2.8-4.84-6.63-7.28-9.08-.67-.68-1.24-1.14-1.82-1.89-2.19-2.85-8.63-8.06-11.54-10.25l-13.81-8.04c-.49-.22-.73-.37-1.15-.56-.35-.16-.86-.35-1.23-.49l-6.66-2.42c-.53-.16-1.07-.24-1.57-.39l-15.44-2.71c-2.38-.35-11.47-.37-14.08-.07-4.5,.52-8.77,.76-13.13,1.99l-6.67,1.65c-.08,.02-.3,.1-.38,.12-3.62,1.01-7.03,2.31-10.6,3.58-.39,.14-1,.37-1.39,.54-5.23,2.37-6.74,2.96-12.31,5.8-.81,.41-1.59,.79-2.38,1.27l-3.43,1.96c-.41,.25-.76,.44-1.21,.74l-21.01,15.18c-2.21,1.88-9.41,7.69-10,9.96-.49,1.9,2.32,4.02,3.49,5.48l7.41,8.99c.36,.45,.55,.59,.91,1.04,.5,.61,1.08,1.37,1.57,2.13Z"/>
      </g>
      <path class="cls-1" d="M522.65,445.34c1.26,1.02,1.73,3.1,2.55,4.49l18.36,34.52c.35,.59,.6,.99,.88,1.55l5.06,9.64c.54,1,1.06,1.87,1.63,3.01l10.12,19.01c.29,.6,.51,1.03,.86,1.61,1.38,2.26,2.39,4.76,3.73,7.04,2.27,3.86,3.96,7.98,6.31,11.81,.35,.57,.58,1.03,.85,1.57,2.62,5.29,5.67,10.35,8.32,15.67,.27,.55,.52,1.1,.83,1.64,1.44,2.54,2.66,5.3,4.2,7.8l3.38,6.39c3.67,7.44,8.06,14.59,11.75,22.03l9.16,17.3c.35,.59,.6,.99,.88,1.55l13.42,25.29c.67,1.11,1.08,2.09,1.68,3.2,.54,1,1.1,2.21,1.76,3.17l2,2.69h1.96c.38-.46,10.71-4.89,12.56-5.7l3.76-1.64c1.29-.63,2.79-1.43,4.24-1.71l.94-31.07c.13-1.18,.03-2.73,.03-3.95,0-1.49,.27-2.04,.26-3.66,0-1.31,0-2.62,0-3.92,0-1.57,.25-2.39,.26-3.9,0-1.31,0-2.62,0-3.92l.24-7.83c0-1.71,.21-2.5,.25-3.9,.07-2.55,0-5.28,0-7.85,0-1.64,.22-2.28,.25-3.65l.55-19.47c.69-4.85-.01-10.36,.44-15.51l.48-15.72c0-1.64,.22-2.28,.25-3.65,.04-1.28,0-2.65-.01-3.94,0-1.64,.24-2.18,.26-3.65,.02-1.38,0-2.79,0-4.17l.24-11.52c0-2.39,.5-5.1,.51-7.57v-7.84c-.02-3.45,.48-7.54,.48-11.75l.24-11.76c0-1.47,.26-2.2,.26-3.66l.3-15.54c.33-2.32-.08-5.4,.21-7.88l.7-19.19c0-1.57,.25-2.39,.26-3.9,0-2.85,.19-4.84-.74-7.35-3.27,0-9.44,1.7-12.91,2.43-2.28,.47-3.96,1.12-6.38,1.48-1.76,.26-4.71,1.22-6.17,1.23l.24,74.42c0,8.51,.24,16.42,.24,24.72v37.21c0,4.38,.24,8.04,.24,12.24,0,16.07,.23,32.16,.02,48.23l-.26,1.71c-.35-1.73-8.24-17.07-8.98-18.52l-6.78-13.79c-2.19-4.66-4.82-9.1-6.74-13.85-1.76-4.36-4.24-8.35-6.24-12.59l-11.83-24.15c-1.58-3.16-2.96-6.17-4.49-9.22l-22.59-45.97c-1.77-4.23-8.97-18.39-11.35-23.15-.43-.87-.77-1.49-1.15-2.28l-19.15-39.1c-.84-1.74-2.96-.75-5.43-.53-.89,.08-2.05,.14-3.15,.26-3.48,.36-9,1.35-12.32,1.43l-24.74,2.87c-1.3,.16-1.83,.19-3.02,.39-3.08,.53-9.97-.02-7.09,5.08,2.18,3.86,14.74,23.14,17.48,27.1,.53,.77,.49,1.36,.48,2.75v199.27c0,4.21,.3,9.68-.01,13.73-.21,2.64-.99,10.13,1.51,11.89,1.4,.99,4.56,0,5.59-.6,2.97-1.7,5.02-4.34,6.76-7.31,1.81-3.09,3.15-6.27,4.07-9.72l1.09-5.8c.16-1.15,.39-2.04,.51-2.92l.54-16.66c0-1.5,.19-1.94,.25-3.15,.16-3.17-.21-7.13,.18-10.06,.26-2,.3-11.52,.3-13.48l.25-6.6c0-4.57,.49-8.6,.49-13.22s.51-8.97,.49-13.46c-.02-4.27,0-12.42,.45-16.63,.12-1.1-.05-2.3,.05-3.4,.46-5.28,.17-16.23,.65-19.88,.54-4.06-.21-9.23,.41-13.29l.63-20.01c0-2.06-.16-4.84,.01-6.8l.71-19.89c0-1.3,.25-1.87,.26-3.16,.01-1.14,0-2.3,0-3.44Z"/>
      <path class="cls-1" d="M1485.94,397.12v1.71c.64,.52,1.04,1.71,1.45,2.4,.29,.47,.46,.78,.75,1.23l3.97,6.06c2.46,3.86,11.63,17.5,12.49,19.3,.58,1.23,.2,13.18,.2,15.56,0,28.21,.33,196.31-.1,199.24-.33,2.18-.5,9.33,.58,11.25,1.58,2.79,6.42,.67,8.49-1.01,1.51-1.23,2.52-2.62,3.66-4.23,.63-.89,.95-1.49,1.49-2.47,1.78-3.28,3.04-6.4,3.95-10.08,1.13-4.55,1.37-9.41,1.75-14.22,.16-1.98-.14-3.98,.15-5.93l.59-23.23c0-3.74,.07-7.88,.45-11.49l.24-5.88c.22-2.01,.04-4.12,.04-6.14-.01-4.9,.5-10.52,.49-15.42,0-1.31,0-2.62,0-3.92,0-1.64,.24-2.18,.26-3.65,.03-2.59-.25-5.35,.13-7.87,.34-2.3,0-5.38,.28-7.56,.17-1.25-.04-2.56,.13-3.78l1.16-35.14c-.01-2.56-.09-5.3,0-7.83,.04-1.3,.27-2.05,.25-3.68l.98-27.14c.06-1.24,0-2.69,0-3.95,0-1.64,.25-2.2,.25-3.67,.7,.61,9.18,16.79,10.03,18.52l3.43,6.36c3.16,6.35,6.71,12.6,10.04,18.85l13.3,25.14c.62,1.19,1.11,1.96,1.71,3.18l20.93,39.32c.34,.55,.54,.91,.86,1.56,3.2,6.47,6.75,12.46,10.04,18.85l31.75,59.82c.57,1,1.15,2.1,1.7,3.18,.47,.93,1.19,2.27,1.73,3.19,.32,.55,.61,.83,1.02,1.44,.31,.46,.77,1.01,.93,1.32h2.2c.37-.45,.36-.33,1-.6,.59-.25,.95-.41,1.38-.59,.59-.24,.7-.28,1.21-.52,.47-.23,.72-.34,1.34-.59,5.3-2.17,10.43-4.65,15.63-7,0-1.39,0-2.78,0-4.16,0-1.63,.18-2.36,.25-3.65,.13-2.48-.24-5.65,.03-8.01,.57-4.79,.17-10.57,.45-15.49l.25-3.69c0-1.31-.01-2.62,0-3.93,0-1.49,.27-2.04,.26-3.66l.23-11.76c.02-1.38,.27-2.04,.26-3.66l.24-11.75c-.02-8.79,.78-18.1,.73-27.18,0-1.64,.21-2.28,.25-3.65,.07-2.6,.02-9.49,.34-11.59,.35-2.31,.15-5.55,.14-8.01,0-1.69,.18-2.56,.25-3.89l.21-5.63c.07-.65,.04-1.32,.04-1.98l.25-7.83c0-2.62-.02-5.23-.02-7.85,0-1.49,.27-2.04,.26-3.66,0-1.31-.08-2.86,0-4.14l.25-3.69c0-1.31-.01-2.62,0-3.93l.46-7.56c.31-2.92-.07-6.59,.24-9.55l.28-13.73c0-2.71,.23-4.91,.24-7.84,0-1.49,.27-2.04,.26-3.66l.24-11.75c0-7.81,.73-15.6,.73-23.26,0-4.63,1.2-8.71-3.9-6.97-1.1,.37-2.23,.4-3.3,.65l-12.83,2.84c-1.12,.26-2.23,.53-3.2,.73l-2.72,.8c0,33.41,.24,66.06,.24,99.39l.24,61.93c0,4.04-.22,8.7,.21,12.33,.3,2.54,.12,18.26,.05,23.17,0,.17-.01,.59-.03,.75l-.23,.96c-.25-1.24-5.48-11.53-6.12-12.81-9.76-19.52-19.06-39.28-28.89-58.75-.32-.64-.47-.98-.77-1.71-.43-1.07-1.01-2.1-1.6-3.27l-17.14-34.76c-.59-1.19-1-2.26-1.55-3.35l-21.87-44.47c-.53-1.05-.97-1.94-1.55-3.1-.32-.65-.54-1.05-.82-1.63l-13.36-27.3c-1.46-3.59-5.4-9.74-6.22-12.77l-43.09,4.82c-3.31,.41-7.67,.57-10.66,1.3-1.38,.34-1.36,.96-2.3,1.46Z"/>
      <path class="cls-1" d="M866.84,524.66c-3.99,0-7.14,.24-11.01,.24s-7.22,.24-11.02,.24c-7.8,0-14.81,.25-22.52,.24-2.11,0-3.59,.25-5.38,.25-1.88,0-3.77,0-5.65-.01l-5.38,.25c-9.45,0-18.43,.49-27.91,.49-.23,1.12-.76,2.39-1.15,3.4-.47,1.21-.85,2.44-1.26,3.62-.26,.74-.45,1.07-.66,1.76-.08,.27-.2,.75-.28,.97l-3.57,10.13c-1.2,3.85,1.37,3.27,3.52,3.38l13.93,.99c6.75,.21,12.32,.77,19.11,.96,1.13,.03,1.25,.2,2.21,.25l12.33,1.44c3.38,.73,6.34,2.79,8.05,5.75,2.28,3.95,2.37,14.8,.96,19.68l-1.58,5.75c-1.04,3.53-2.91,7.12-4.77,10.24l-4.16,5.91c-.84,1.02-1.41,1.91-2.34,2.83-.48,.47-.74,.79-1.13,1.29-2.22,2.88-8.11,7.28-10.95,8.98-.44,.26-.33,.21-.76,.46-3.68,2.13-7.66,3.68-11.78,4.71-1.4,.35-2.62,.57-4.06,.85-4.98,.98-13.34,.45-18.04-.92-.86-.25-1.27-.37-1.89-.56l-12.06-5.49c-.98-.64-1.98-1.4-2.88-2.01-2.07-1.4-6.36-5.07-7.94-6.96-.42-.5-.63-.87-1.1-1.34l-3.53-4.09c-2.2-2.81-4.2-5.88-6.13-8.82-1.31-2-2.54-4.22-3.7-6.35-1.79-3.29-3.19-6.76-4.73-10.22-2.65-5.94-4.65-12.69-5.98-19.06-.28-1.34-.72-2.62-.99-3.9l-2.89-22.13c-.12-1.5,0-3.39,0-4.93l-.25-4.88c0-6.61-.1-13.4,.85-19.15l1.21-9.79c.55-2.51,.85-6.12,1.62-8.38,.03-.07,.1-.29,.13-.37,.09-.27,.1-.32,.17-.58l4.07-13.52c4.3-10.7,8.51-18.5,15.51-26.75l8.69-8.67c3.07-2.71,6.57-5.21,10.27-7.04,.27-.13,.57-.27,.83-.41,.38-.21,.67-.39,.93-.52l5.95-2.6c3.02-1.13,5.97-1.85,9.11-2.6l.59-.17c3.71-1.16,13.28-1.73,17.22-1.53,6.65,.34,14.68,1.98,19.8,5.09,1.53,.93,1.91,.71,3.03,2.15,2.52,3.23,20.58,27.23,21.95,27.77h1.22c1.29-1.84,1.24-2.66,1.49-5.58l.96-12.79c-.01-1.44,.09-2.09,.2-3.16,.13-1.19-.03-2.34,.14-3.52,.26-1.76,.4-4.39,.6-6.28,.43-3.98,.35-8.77,.75-12.98,.2-2.15,.51-4.38,.51-6.62-1.2-.48-2.23-1.38-3.33-2.11-6.29-4.16-13.28-6.61-20.55-8.44l-4.77-1.14c-2-.27-3.26-.41-5.33-.57-1.74-.13-3.21-.48-5.19-.47-1.93,0-3.96-.07-5.87,0-1.14,.04-1.39,.25-2.68,.26-4.04,.05-7.72,.42-11.78,1.12l-3.82,.56c-.81,.23-1.55,.37-2.42,.54l-5.36,1.2c-1.99,.65-4.15,1.01-6.08,1.75-.44,.17,.1-.02-.53,.21l-15.66,6.81c-.69,.42-1.26,.66-1.94,1.02l-1.83,1.09c-7.76,4.68-8.8,5.94-15.26,10.91-2.6,2-7.66,6.81-9.58,9.21l-12.46,15.17c-4.9,7.23-9.67,14.7-13.17,22.77-.15,.35-.33,.68-.49,.99l-1.75,4.1c-.26,.65-.57,1.41-.84,2.1l-6.89,22.17c-.89,4.85-1.95,9.28-2.72,14.65-.25,1.79-.36,3.41-.64,5.24-.81,5.32-.88,22.74-.88,28.2,0,2.31,1.18,12.84,1.54,15.9,.08,.65,.27,1.88,.38,2.56l4.32,18.97c2.42,8.52,6.18,16.54,10.24,24.34,1.67,3.21,3.6,6.11,5.6,9.12,2.71,4.08,5.57,7.91,8.82,11.54l11,10.78c5.09,4.32,10.79,7.83,16.77,10.83,.59,.3,1.18,.62,1.79,.88l5.45,2.13c.06,.02,.13,.04,.19,.07l1.77,.62c2.68,.64,5.41,1.61,8.12,2.16,6.71,1.37,14.86,2.22,21.57,1.31,3.26-.44,7.18-.4,10.29-1.27l8.19-2.12,9.3-3.7c3.85-1.79,7.31-4.21,10.82-6.6,1.11-.75,2.2-1.68,3.31-2.58,2.64-2.12,5.34-4.35,7.59-6.89,4.1-4.62,8.3-9.42,11.55-14.69,2.97-4.82,5.98-9.68,8.42-14.86,.32-.68,.55-1.37,.89-2.04,.16-.32,.34-.65,.49-.99l1.31-3.09c.29-.65,.6-1.44,.86-2.09l5.79-17.5,2.23-9.32c.17-.9,.27-1.51,.53-2.36,.02-.08,.16-.49,.18-.57,.1-.37,.07-.29,.13-.64l1.81-11.39c.02-.08,.21-.82,.24-.98,.02-.1,.12-.94,.17-1.35l.89-7.9c.13-.98,0-1.9,.1-2.85,.07-.61,.32-1.94,.39-2.53,.21-1.67,.31-3.99,.31-5.63Z"/>
      <path class="cls-1" d="M1706.26,644.61c1.14,0,3.87-.17,5.11-.35l25.24-1.68c1.45-.18,3.03-.43,4.89-.42,3.03,.01,7.27-.19,10.22-.63,3.29-.49,7.13,0,10.35-.41,1.46-.19,3.07-.43,4.89-.42,7.42,.04,13.84-1,20.57-.97,4.02,.02,8.62-.37,12.78-.73,4.06-.35,7.43,.13,12.3-1.23,3.95-1.11,7.45-3.19,10.57-5.71,6.87-5.54,14.34-19.38,6.23-19.52-3.64-.06-7.38,.01-11.03,.01h-43.08c-6.9,0-17.65,.65-23.28-.85-.07-.02-.27-.1-.34-.12l-5.6-1.96c-6.01-2.98-8.37-8.77-9.6-14.95l-.59-7.58c0-3.76,.13-6.94,.24-10.53,.03-1.02,.23-1.37,.26-2.43,.07-2.59-.25-5.33,.13-7.88,.42-2.83,.18-7.49,.35-10.48,.06-.99,.24-1.24,.26-2.46,0-.87-.08-1.76,.03-2.61,.56-4.7,.26-12.77,.69-18.18l.26-8.1c2.24-.01,5.01-.82,6.89-.97,.93-.07,2.22-.05,2.84-.14,1.8-.27,3.02-.52,4.97-.61l5.1-.59c7.74-1.07,14.86-1.63,22.51-2.69,.91-.13,1.83-.32,2.53-.37l15.31-1.62c3.38-.47,6.6-.71,10.07-1.19,2.61-.36,5.15-.3,7.49-.87,.66-.16,.51-.14,1.16-.22l.93-.14c1.08-.23,2.64-3.92,3.28-4.99l5.53-9.67c.91-1.68,2.2-2.98,2.2-5.55-1.76-1.14-5.4-.71-7.57-.94l-36.98-.28c-7.66,0-14.72-.24-22.52-.24h-22.77c0-2.97-.29-6.19,.14-9.09l.35-13.92c0-1.9,.24-3.06,.25-4.64,.04-3.26,0-6.36,.22-9.29,.47-5.98,0-12.63,.52-18.58,.24-2.76,0-6.41,.24-9.3,.91-10.44-1.89-8.62,3.99-9.32,2.02-.24,4.44,.01,7.88-.46,3.64-.5,8.73-.23,12.25-.73l24.08-1.55c3.8,.01,8.03-.51,11.85-.94,1.38-.15,2.95-.1,4.16-.24,.64-.07,1.25,0,1.89-.04,1.04-.05,1.02-.19,1.96-.25,.71-.04,1.49,.04,2.21,0,1.04-.05,1.02-.2,1.96-.25,2.75-.15,5.62-.17,8.15-.45,.65-.07,1.2-.02,1.87-.11l6.11-.42c3.27,.05,2.53,.03,3.59-3.15l2.89-7.87c.71-1.82,3.35-7.9,3.08-9.72-.37-2.52-9.62-1.54-11.51-1.54h-128.28c-11.11,0-14.25-1.31-6.61,10.24,.27,.41,.48,.74,.75,1.2l12.44,19.86c.76,1.4,.28,13.91,.28,16.69v51.41c0,5.93,.24,11.07,.24,16.89,0,23.02,.24,45.47,.24,68.3s-.05,45.7,0,68.54Z"/>
      <path class="cls-1" d="M1091.81,452.69c3.04,0,2.85-1.57,3.23-4.8,.37-3.25,.26-8.73,.55-10.69,.54-3.68,.51-7.47,.62-11.19,.15-4.68,.98-9.31,.98-14.21,0-2.3,.48-4.85,.51-7.08,.03-2.79,.24-4.74,.24-7.6-.55-.22-1.03-.5-1.56-.73-.57-.25-1.17-.48-1.7-.74-1.11-.54-2.28-1.02-3.45-1.47l-13.21-4.21c-.58-.15-1.26-.31-2-.46-7.73-1.54-14.65-2.18-22.62-2.18-4.79,0-9.29,.42-13.78,1.09-2.81,.41-5.71,.95-8.4,1.6-.65,.16-1.25,.37-1.87,.56l-3.76,1.12c-.69,.24-1.23,.31-1.89,.56-.16,.06-.51,.22-.87,.35l-6.25,2.55c-6.82,2.99-12.59,6.81-18.3,11.27l-6.65,5.82c-.46,.43-.76,.77-1.21,1.22l-4.77,5.26c-.87,.92-1.54,1.77-2.34,2.78-2.35,2.95-4.62,6.1-6.55,9.33-2.39,4.01-4.43,8.04-6.18,12.39l-4.56,15.21c-.29,1.4-.35,3.25-.67,4.49-.99,3.91-1.29,14.56-1.06,18.93,.32,6.28,1.22,12.31,3,18.15l.91,2.79c.18,.42,.13,.33,.31,.88l.32,.93c1.94,5.03,4.65,10.14,8.25,14.13,3.2,3.54,6.64,6.71,10.56,9.47l3.72,2.4c.24,.15,.55,.37,.73,.49l1.67,1.01c.38,.21,.51,.26,.8,.43l3.99,2.14c2.04,1.23,4.42,2.25,6.59,3.16,3.46,1.46,6.97,3.12,10.59,4.32l5.57,2.02c4.87,1.68,10.09,3.11,14.89,4.95l16.07,6.24c3.91,1.9,7.76,3.58,11.25,6.17,3.7,2.76,6.96,7.01,8.11,11.61,1.73,6.88,1.14,10.65-.41,17.17-.73,3.08-2.52,5.81-4.24,8.35l-3.46,4.17c-1.91,1.91-6.19,5.18-8.39,6.37-.6,.32-1.01,.59-1.55,.89l-6.99,3.1c-.6,.22-.41,.16-.88,.33l-.93,.31c-8.08,2.67-18.06,3.83-26.6,2.91-1.58-.17-3.23,.12-4.79-.1-3.93-.54-11.72-1.67-14.95-2.63l-14.72-5.06c-3.96-1.76-7.88-3.54-11.59-5.76-1.93-1.16-4.22-2.62-6.19-3.63-1.16-.6-2.19-1.55-3.32-.45-1.05,1.01-.84,2.67-.76,4.15,.06,1.11,.29,3.53,.42,4.52,.23,1.74,.17,2.95,.35,4.78l1.26,13.68c.34,2.47-.1,2.01,1.71,3.33,4.28,3.13,8.85,6.06,13.48,8.77,.59,.35,1,.6,1.55,.88l13.95,5.84c.7,.24,1.09,.35,1.87,.54l5.98,1.59c1.29,.25,3.02,.57,4.15,.73,.63,.09,1.84,.17,2.22,.23,3.91,.62,7.77,.59,11.81,.61,1.76,0,2.74-.23,4.66-.24,1.63-.01,2.92-.33,4.44-.5l3.14-.61c1.71-.53,3.66-.63,5.21-1.17,.75-.26,1.13-.31,1.92-.48,6.69-1.49,17-7.09,21.86-10.57,2.48-1.77,4.88-3.42,7.06-5.47l3.96-3.59c2.5-1.89,4.99-5.12,7.18-7.55l4.42-5.66c5.73-8.46,9.19-14.52,12.38-24.91l1.19-4.92c.65-2.13,1.4-8.2,1.41-10.22,.01-1.77,.25-2.84,.24-4.66-.04-8.19-.48-12.51-2.57-20.09l-1.11-3.28c-.22-.57-.48-1.21-.7-1.75-.28-.69-.49-1.1-.74-1.71-2.45-6.02-6.98-11.24-11.6-15.72-2.59-2.51-5.66-4.57-8.66-6.57-1.09-.72-1.98-1.31-3.03-1.89-.6-.32-1.01-.59-1.55-.89-7.07-3.99-16.49-8.43-24.19-10.64l-13.16-4.21c-2.6-.77-4.88-1.71-7.28-2.5l-7.22-2.8c-3.41-1.36-6.74-3.06-10-4.66-6.21-3.04-12.57-7.73-15.91-13.95-.35-.65-.51-.8-.9-1.54-.35-.68-.44-.96-.74-1.73-2.78-7-2.67-14.35-.99-21.47l1.37-3.72c1.24-3.09,3.05-5.7,5.07-8.32,.32-.41,.13-.23,.54-.67l9.15-8.18c.53-.4,.9-.65,1.44-.97,1.07-.62,2.1-1.25,3.22-1.93,3.04-1.84,6.89-3.17,10.39-4.23,3.6-1.09,3.4-.85,6.08-1.49,.62-.15,1.33-.4,1.93-.46,9.83-1.1,20.16-1.04,29.77,1.05l4.3,1.1c2.25,.6,7.1,2.15,8.35,3.76,3.21,4.16,7.12,7.78,10.34,11.94l10.56,11.99Z"/>
      <path class="cls-1" d="M1859.99,625.03c0,.65-.08,1.92-.02,2.49,.14,1.35,0,.54,.36,1.02,1.14,1.52,10.05,7.14,12.33,8.48l1.57,.89c4.76,2.89,10.16,4.79,15.41,6.82l11.81,3.04c.95,.14,1.34,.12,2.18,.3,2.66,.56,10.89,.88,14.15,.71,.96-.05,1.22-.23,2.18-.25l12.82-1.95c7.41-1.72,14.42-4.83,20.97-8.73,3.53-2.1,7.16-4.49,10.2-7.24l2.56-2.31c.56-.5,.77-.54,1.36-1.11,6.63-6.42,13.15-13.65,17.6-21.89,1.79-3.32,3.45-6.54,4.88-10.09l3.58-11.39,1-6.37c.06-.39,.18-1.51,.27-2.18,.59-4.12,.73-10.35,.37-14.56-.29-3.43-1.04-7.25-1.9-10.52l-.53-2.14c-.02-.06-.05-.12-.06-.18-.02-.06-.04-.13-.06-.19l-4.72-10.64c-2.28-3.78-5.03-7.31-8.18-10.36-2.47-2.39-5.38-4.59-8.21-6.52-2.54-1.73-5.07-3.37-7.81-4.72-.65-.32-1-.53-1.56-.86-5.27-3.19-14.94-6.86-20.82-8.86-.59-.2-1.17-.28-1.91-.55-.94-.34-.5-.41-1.75-.72l-5.99-1.81c-.06-.02-.12-.04-.18-.06l-1.27-.43c-.24-.09-.44-.2-.93-.33l-1.88-.54c-.59-.22-.51-.19-1.1-.39l-9.04-3.18c-.49-.2-1.19-.48-1.74-.7-.58-.23-1.1-.36-1.78-.66l-11.74-5.62c-3.12-1.68-6.24-3.62-8.72-6.14-1.68-1.71-3.37-3.43-4.69-5.4-.68-1.02-1.32-1.97-1.87-3.06l-2.14-5.74c-.94-3.14-1.27-10.17-.46-13.34,.12-.48,.27-1.54,.38-2.09,.53-2.69,1.35-5.01,2.55-7.4,1.56-3.1,3.5-6.2,5.97-8.63,1.67-1.64,3.22-3.26,5.07-4.7,1.04-.81,1.75-1.38,2.79-2.1,2.84-1.96,6.27-3.93,9.56-5.32l4.98-1.84c.06-.02,.13-.04,.19-.06,8.08-2.61,16.17-2.79,24.72-2.82,1.39,0,3.17,.14,4.67,.29,.56,.06,1.39,.17,2.18,.28l8.29,1.54c.08,.02,.32,.08,.4,.1l1.67,.51c.8,.19,1.09,.28,1.92,.56l5.34,2.03c1.15,.47,1.83,1.37,2.61,2.35,.45,.57,.56,.71,1.14,1.33,1.61,1.73,3,3.72,4.65,5.4,.47,.48,.74,.78,1.13,1.29,.44,.57,.74,.76,1.19,1.27l2.22,2.69c2.35,2.78,6.12,6.57,8.14,9.22,1.09,1.43,.98,1.75,3.43,1.75,.48-1.05,.87-1.52,1.13-2.7,.29-1.33,.36-1.87,.34-3.42l.97-17.64c0-1.5,.27-2.04,.25-3.66-.02-2.51,.49-4.5,.49-6.85,0-1.17-.1-2.41,.06-3.55,.78-5.79,.76-12.13,1.16-17.76-1.04-.12-5.57-2.47-6.75-2.9l-11.26-3.71-8.23-1.83c-.44-.08-1.57-.08-2.27-.19-8.51-1.32-14.75-1.34-23.36-.69-.79,.06-1.6-.04-2.38,.05-4.43,.5-10.79,1.43-14.78,2.77-.92,.31-.07,.07-.91,.32l-6.46,2.08c-.57,.23-1.11,.44-1.75,.7-1.15,.46-2.49,.95-3.6,1.51-2.13,1.07-4.6,2.16-6.62,3.39-2.07,1.26-4.15,2.54-6.16,3.87-.49,.32-.92,.66-1.42,1.02-.49,.35-.91,.59-1.42,1.02-4.48,3.73-9.32,7.33-13.06,11.85-4.51,5.46-9.27,10.89-12.53,17.28-1.69,3.32-3.47,6.65-4.77,10.13l-2.48,7.53c-.35,1.25-.76,2.33-1.08,3.8l-1.58,8.45c-.79,4.61-1,14.82-.77,19.25,.18,3.5,.46,7.65,1.4,10.92,.19,.66,.28,1.25,.42,2,.96,5.17,3.05,10.15,5.36,14.8,4.78,9.64,13.34,16.16,22.28,21.57,.39,.24,.56,.36,.9,.55l9.79,4.9c4.5,2.28,9.5,4.1,14.29,5.74,.35,.12,.51,.14,.94,.29,2.13,.74,4.36,1.73,6.51,2.27,2.98,.75,6.03,1.86,8.92,2.87l5.91,2.17c.54,.2,1.3,.42,1.83,.63l10.72,4.48c7.27,3.68,13.93,6.84,17.22,15.07,1.71,4.29,2.13,8.42,1.51,13.18-.2,1.56-.36,3.02-.68,4.26-.4,1.57-.8,2.52-1.33,3.86-.52,1.3-.9,2.17-1.61,3.34-.28,.47-.56,.93-.91,1.53-3.4,5.71-8.87,9.8-14.61,12.95-.63,.35-.86,.58-1.56,.9l-9.35,3.43c-1.26,.33-2.67,.61-3.89,.98-3.19,.96-10.57,1.47-13.59,1.46-3.57,0-6.43-.25-9.8-.24-2.05,0-6.83-.67-8.81-1.13l-10.21-2.24c-4.3-1.43-8.65-2.7-12.8-4.56-4.65-2.08-9-4.27-13.23-6.82-1.38-.83-5.08-3.55-6.69-3.33-2.29,.31-1.32,5.96-1.15,8.08,.25,3.06,.62,6.11,.75,9.26l.98,9.05Z"/>
      <path class="cls-1" d="M300.12,592.96l-4.57-19.06c-.61-2.04-.97-4.22-1.45-6.41l-5.14-22.28c-.16-.71-.32-.81-.47-1.47-.16-.67-.1-1.01-.26-1.72l-1.55-6.3c-.23-1.27-.53-2.06-.73-3.18l-2.94-12.68c-1.48-5.2-2.13-10.81-3.7-15.87l-4.08-17.51c-.14-.69-.16-1.24-.26-1.69l-1.53-6.34c-.43-2.54-1.78-8.75-2.57-11.08l-10.69-46.17c-.08-.49-.19-.93-.37-1.53-.23-.77-.21-.76-.36-1.65l-2.99-12.64c-.67-2.77-3.53-14.39-3.58-16.1-5.25,0-10.11,1.27-15.17,1.47l-12.62,1.49c-.81,.17-1.02,.18-2.06,.22-1.08,.04-2.26,.22-3.47,.38l-7.53,.83c-2.49,.21-6.48,.15-6.42,3.43,.02,1.14,.05,1.21,.42,1.98,1,2.13,15.56,21.56,18.25,25.12,1.08,1.43,.98,1.58,1.49,3.32l3.44,12.19c.16,.73,0,.19,.18,.83,.32,1.18,.06,.15,.31,.93,.14,.44,.07,.24,.21,.75l10.58,38.14c.02,.07,.03,.13,.05,.2l16.28,58.65c.29,.92,.02-.07,.22,.72l5.84,21.12c.22,.74,.2,.56,.41,1.51,0,.02,.19,.81,.2,.82l3.44,12.19c.16,.73,0,.19,.18,.83,.32,1.18,.06,.15,.31,.93l.82,3.07c.04,.18,.14,.56,.22,.8l1.24,4.38c.02,.08,.1,.31,.12,.38l.67,2.52c.14,.42,.4,1.38,.49,1.7l4.22,15.35c.28,1.03,.1,.3,.25,.75,.11,.32,.36,1.29,.43,1.52l3.05,11.14c.02,.07,.04,.13,.06,.19l3.69,14.87c.75,3.4,.6,6.12,.6,9.84,0,3.67-.52,5.32,3.87,4.25l16.72-3.85c1.19-.45,1.6-3.15,2.03-4.32l14.76-42.54c.03-.08,.1-.31,.12-.38l2.68-7.83c.17-.45,.35-.82,.55-1.42l7.98-23.09c.4-.99,.75-1.95,1.11-3.07,.4-1.24,.7-2.11,1.06-3.09l1.31-3.85c.06-.19,.11-.4,.22-.76,.12-.38,.37-.98,.53-1.4,.16-.4,.35-.97,.51-1.47l2.7-7.8c1.46-3.95,2.49-7.75,4.02-11.64l15.13-43.66c.17-.59,.28-.85,.5-1.42,.25-.63,.39-.99,.6-1.63l13.36-38.53c.03-.08,.1-.31,.12-.38l14.39-41.4c.16-.43-.02,.15,.24-.76l2.66-7.84c.23-.62,.32-.76,.55-1.4,1.92-5.45,4.08-11.16-5.39-9.51-2.11,.37-4.18,1.1-6.15,2.08-7.13,3.55-11.92,10.32-15.96,16.95-1.85,3.03-3.46,6.3-4.81,9.58l-1.25,2.92c-.21,.48-.44,1.07-.64,1.55l-7.34,21.54c-.4,1-.63,2.2-1.01,3.16-.44,1.11-.49,1.86-.91,3.01l-6.13,18.84c-1.39,3.58-3.09,9.91-4.45,13.9-.24,.7-.41,.94-.62,1.58l-4.92,15.6c-.43,1.91-1.43,4.39-2.11,6.26-1.06,2.91-1.84,6.76-2.97,9.54l-3.03,9.17c-.19,.64-.26,1.02-.43,1.54l-1.6,4.77c-1.62,4.67-2.81,9.52-4.52,14.09l-4.2,13.14c-.2,.79,.02,.07-.31,.95-.38,.99-.69,2.1-1,3.14l-7.05,21.83c-.38,1.32-.63,1.7-.98,3.17l-3.08,9.56Z"/>
      <path class="cls-1" d="M1121.19,426.98c9.16,0,17.03-.54,26.19-.49,2.16,.01,3.93-.25,6.37-.25l19.83-.24c0,4.87,.24,9,.24,13.71,0,4.36-.32,10.02,.01,14.22,.69,8.79,.11,18.69,.22,27.89,.02,1.29,.26,1.86,.26,3.16l.24,31.59c0,25.59,.73,51.42,.73,77.11,0,4.8,.24,8.83,.24,13.71v24.73c-.01,1.55,.24,2.07,.25,3.42,.03,2.36,0,4.75,0,7.11,0,1.12-.05,2.35,0,3.45,.08,2,.61,1.95,.99,2.67,3.72,0,5.24-.77,8.75-1.36,0,0,.78-.16,.84-.18l.92-.3c2.04-.54,4.7-.78,7.11-1.47,.07-.02,.13-.04,.19-.06l10.1-2.02c0-2.63,.25-4.34,.24-6.85,0-2.37,0-4.73,0-7.1,0-1.15,0-2.29,0-3.44,0-1.3,.25-1.87,.26-3.16,.03-2.29-.14-4.84-.01-7.09,.06-1.13,.26-1.74,.25-3.2l.49-31.09c0-2.63,.25-4.34,.24-6.86,0-2.49,.25-4.07,.24-6.61,0-2.33-.08-4.79,0-7.1l.51-13.45c.03-2.36,0-4.75,0-7.11,0-1.15,0-2.29,0-3.44,0-1.36,.26-2.02,.26-3.41,.01-9.35,.49-18.05,.48-27.42,0-2.49,.25-4.07,.24-6.61l.24-21.05c0-1.15,0-2.29,0-3.44,0-1.3,.25-1.87,.26-3.16,.02-2.03-.21-5.1,.06-6.98l.91-41.02c4.94,0,22.41-1.05,27.53-1.92,4.1-.7,8.49-1.28,12.43-2.55,2.92-.94,1.84-.4,5.5-1.86,3.35-1.33,6.55-3.36,9.07-5.97,3.95-4.08,5.99-10.53,5.45-17.06-.19-2.3-3.14-1.74-5.64-1.74-26.9,0-54.2-.73-81.27-.73-10.16,0-19.61-.24-29.62-.24h-29.62c0,3.13-.75,9.79-.74,12.97,0,.72,.03,1.51,0,2.22-.03,1.13-.2,1.25-.25,2.21-.04,.7,.02,1.49,.01,2.19l-.99,15.66Z"/>
      <path class="cls-1" d="M0,397.12v1.71l1.48,2.62c.49,.88,1.1,1.69,1.66,2.52l9.79,15.17c1.09,1.77,2.16,3.27,3.28,5.05,1.42,2.25,2.67,3.25,2.66,5.47-.27,49.93,.48,100.1,.48,150.08,0,22.46,.2,44.29,.25,66.58,5.99,0,14.1-.65,20.57-.72,1.35-.02,2-.27,3.41-.26l38.17-1.57c3.19-.48,11.17-.18,14.01-.4,2.2-.17,4.34-.49,6.83-.48,2.04,0,5.11-.14,6.79-.38l11.33-3.21c5.84-2.72,12.4-9.23,13.18-15.74,.23-1.93,.77-4.89-.4-6.22-2-2.28-9.36-1.08-13.03-1.56-3.53-.47-10.57-.09-14.45-.06-1.5,0-1.94-.19-3.15-.25l-32.35-.23c-2.33,0-8.67-.58-11.22-1.17-.68-.16-.99-.16-1.64-.32-.06-.02-.13-.03-.19-.05-3.09-.86-5.28-2.63-6.62-5.56-.77-1.7-.84-2.55-1.07-4.41-.26-2.07,.14-15.28,.17-17.88,.02-1.32,.26-1.71,.26-3.17l.23-10.79c0-1.3,.25-1.87,.26-3.16,.01-1.22,0-2.46,0-3.68,0-4.04,.51-10.16,.49-13.95-.01-2.45,0-4.9,0-7.35-.02-5.11,.51-11.43,.48-17.39,0-1.4,.24-2.06,.26-3.41,.01-1.22-.02-2.47-.02-3.69,0-1.36,.26-2.02,.26-3.41,0-4.84,.25-9.18,.23-14.21l.48-6.57c.17-2.19,.01-5.1,.01-7.37,0-4.06,.51-10.13,.49-13.95-.02-3.96,.49-9.89,.49-13.95l.48-21.05c.04-1.25,.26-1.88,.26-3.43-.05-8.37,.74-16.84,.73-24.48,0-2.33-.13-5.05,0-7.32l.24-6.88c0-1.4,.24-2.06,.26-3.41,.01-1.22,0-2.46,0-3.68l-14.31,1.54c-2.13,.28-4.86,.56-7,.84-1.31,.17-2.42,.38-3.41,.5l-27.03,3.07c-4.87,.8-1.75,.42-4.06,1.64Z"/>
      <path class="cls-1" d="M398.53,397.12v1.71l3.13,5.14c.6,.89,.98,1.61,1.61,2.55,.62,.93,1.09,1.59,1.67,2.49l9.89,15.33c.53,.79,1.04,1.56,1.67,2.49,.77,1.14,.9,1.48,.88,3.32-.23,27.92,.24,56.4,.24,84.22v33.54c0,11.45,.24,22.25,.24,33.54l.25,67.32c1.13-.02,2.51-.24,3.51-.52l10.29-1.65c1.2-.19,2.33-.16,3.56-.38,1.03-.18,2.5-.41,3.35-.57,1-.2,2.54-.3,3.43-.5,1.03-.24,2.62-.52,3.76-.54,0-6.83,.51-12.91,.48-20.08l.74-15.66c0-1.39,0-2.77,0-4.16,0-1.21-.1-2.93,.04-4.07,.56-4.7,.4-16.73,.84-19.7,.39-2.59-.17-5.34,.14-7.96,.46-3.91,.44-12.23,.45-16.01,0-1.53,.27-2.2,.26-3.9,0-1.2-.1-2.94,.03-4.07,.57-4.82,.16-10.87,.66-15.74,.52-4.95,.36-11.04,.52-16.17,.03-.83,.14-1.01,.22-1.7l.27-14.22c.02-.83,.14-1.01,.22-1.7l.03-6.15c0-1.57,.25-2.39,.26-3.91,0-1.31-.09-2.77,.09-3.99,.34-2.22,.13-5.43,.13-8.02l.51-7.81c.03-2.66-.3-5.61,.09-8.16,.17-1.14,.15-12.74,.56-15.84,.18-1.36,.07-2.8,.06-4.17,0-1.53,.26-2.35,.26-3.91-.04-8.82,.76-18.53,.72-27.92,0-1.54,.27-2.35,.25-3.91-.02-1.73,.23-2.4,.25-3.9l.24-12.25c-1.42,0-2.13,.2-3.45,.39l-17.83,2.04c-2.64,.18-4.9,.45-7.34,.73-2.4,.28-4.54,.52-7.04,.8l-17.81,2.2c-1.64,.46-1.28,.87-2.35,1.43Z"/>
      <path class="cls-1" d="M135.13,397.12v1.71l17.09,26.68c.32,.52,.51,.79,.88,1.33,.93,1.35,.9,1.15,.88,3.32-.21,28,.24,56.21,.24,84.22,0,5.76,.24,10.8,.24,16.4l.25,117.99c4.32-.77,9.8-1.31,13.93-2.06l13.98-2.1c0-2.94,.26-5.45,.25-8.08-.02-4.84,.49-11.15,.49-15.91,0-4.91,.5-8.34,.49-11.75,0-1.31-.07-2.86,0-4.14,.1-1.76,.25-1.01,.25-3.94l.35-11.82c.29-1.87,.21-5.89,.37-7.99,.2-2.5-.24-5.59,.05-8.01,.15-1.3,.22-2.37,.21-4.01,0-1.72,.24-2.4,.26-3.9,.11-9.3,.78-18.56,.72-27.92,0-1.57,.25-2.39,.26-3.91,0-5.51,.48-10.54,.48-16.16l.59-15.73c.67-4.38-.21-11.38,.49-15.91,.67-4.39-.04-11.32,.56-15.84,.33-2.52-.19-5.72,.1-8.23,.4-3.43,.44-8.26,.45-11.85,0-1.53,.27-2.2,.26-3.91l.24-12c-.01-2.97,.49-7.91,.49-11.99,0-7.32,.77-16.78,.73-24,0-1.57,.25-2.39,.26-3.91,0-1.39,0-2.78,0-4.17-1.42,0-2.13,.2-3.45,.39l-14.41,1.55c-1.54,.09-2.03,.44-3.43,.5-2.74,.11-4.79,.63-7.34,.74l-14.22,1.64c-2.56,.33-4.8,.67-7.31,.81-4.93,.27-4.33,1.25-5.66,1.95Z"/>
    </g>
  </g>
</svg>