<?xml version="1.0" encoding="UTF-8"?>
<svg id="Layer_2" data-name="Layer 2" xmlns="http://www.w3.org/2000/svg" viewBox="0 0 667.93 89.56">
  <defs>
    <style>
      .cls-1 {
        fill: #c7d5cb;
      }
    </style>
  </defs>
  <g id="Layer_2-2" data-name="Layer 2">
    <path class="cls-1" d="M332.98,89.56c-.09-.17-.06-.33-.06-.47,0-.96,.01-1.92,.02-2.87,.02-2.55,.05-5.1,.07-7.65,.02-1.76,.02-3.52,.04-5.28,.03-3.15,.08-6.3,.11-9.45,.03-2.86,.05-5.72,.07-8.57,0-.34,.03-.68,.04-1.02,0-.11,.01-.22,.01-.32,.02-2.75,.04-5.5,.06-8.25,.03-3.58,.06-7.17,.09-10.75,.01-1.41,.04-2.81,.06-4.22,0-.14,0-.27,0-.41-.16-.11-.32-.08-.47-.09-.14-.01-.28-.03-.42-.03-1.41,0-2.81-.03-4.22,0-1.78,.04-3.55,.14-5.33,.22-1.1,.05-2.19,.1-3.29,.15-1.37,.07-2.75,.15-4.12,.21-1.34,.06-2.69,.11-4.03,.15-.74,.02-1.48,.03-2.23,.03-.15,0-.3-.01-.43-.02-.09-.16-.02-.27,.02-.39,.2-.6,.48-1.17,.83-1.7,.34-.52,.7-1.02,1.06-1.52,.36-.48,.75-.94,1.12-1.42,.28-.37,.55-.74,.84-1.14,.09,0,.19-.03,.3-.03,1.31-.03,2.63-.04,3.94-.07,1.02-.03,2.04-.07,3.06-.11,.91-.03,1.82-.06,2.73-.1,1.2-.05,2.41-.09,3.61-.16,1.7-.1,3.39-.22,5.08-.41,.17-.02,.34-.01,.51-.03,.15-.02,.31-.04,.45-.09,.28-.08,.46-.26,.52-.54,.07-.36,.15-.73,.16-1.1,.02-.91,.01-1.82,0-2.73-.01-1.08-.04-2.16-.07-3.24-.03-1.13-.05-2.25-.08-3.38-.04-1.47-.08-2.93-.13-4.4-.02-.62-.05-1.23-.07-1.85-.03-.68-.04-1.36,.07-2.03,.07-.45,.24-.86,.5-1.23,.06-.09,.12-.18,.2-.26,.69-.79,1.32-1.63,1.94-2.48,.16-.21,.33-.34,.6-.36,.57-.04,1.14-.09,1.71-.14,.07,0,.15,0,.23,.01,.09,.28,.1,.56,.11,.84,.02,1.05,.04,2.1,.04,3.15,0,1.34-.01,2.69-.03,4.03-.03,1.74-.07,3.49-.1,5.23-.03,1.68-.06,3.37-.06,5.05,0,1.36,.02,2.72,.15,4.07,.02,.21,.06,.43,.1,.64,.04,.22,.18,.37,.39,.41,.41,.08,.82,.17,1.23,.19,1.2,.06,2.41,.07,3.61-.03,.66-.05,1.33-.08,1.99-.13,1.09-.1,2.18-.22,3.28-.32,1.29-.12,2.58-.24,3.88-.33,3.07-.23,6.15-.24,9.22-.22,1.03,0,2.07,.08,3.1,.13,.05,0,.09,.02,.17,.03-.02,.08-.01,.18-.05,.25-.37,.62-.73,1.26-1.13,1.86-.79,1.16-1.55,2.34-2.24,3.57-.08,.13-.16,.26-.25,.39-.28,.41-.68,.62-1.17,.66-.18,.02-.37,.02-.56,.02-1.42,0-2.84,0-4.26,.07-1.25,.05-2.5,.07-3.75,.1-.97,.03-1.95,.07-2.92,.11-1.14,.05-2.28,.12-3.43,.18-1.11,.06-2.22,.11-3.33,.16-.36,.02-.71,.02-1.07,.03-.91,.03-1.82,.06-2.75,.09-.02,.1-.05,.19-.05,.27,0,.17,0,.34,0,.51,0,16.3,0,32.6,0,48.89,0,.59-.02,1.17-.09,1.76-.06,.47-.18,.91-.4,1.32-.09,.18-.19,.35-.3,.52-.76,1.24-1.52,2.48-2.27,3.72-.31,.52-.67,1-1.08,1.45-.27,.3-.58,.56-.92,.77-.06,.04-.13,.07-.22,.11Z"/>
    <path class="cls-1" d="M0,53.03c13.32-1.04,26.65-1.78,39.97-2.52,25.18,.03,93.81,.03,119.9,.02,26.32,0,94.42,0,119.9,0,13.32,.76,26.65,1.5,39.97,2.5-13.32,1-26.65,1.74-39.97,2.5-25.18,0-93.81,0-119.9,0-26.32,0-94.42,0-119.9,.03-13.32-.75-26.65-1.48-39.97-2.53H0Z"/>
    <path class="cls-1" d="M348.19,53.03c13.32-1.04,26.65-1.78,39.97-2.52,25.18,.03,93.81,.03,119.9,.02,26.32,0,94.42,0,119.9,0,13.32,.76,26.65,1.5,39.97,2.5-13.32,1-26.65,1.74-39.97,2.5-25.18,0-93.81,0-119.9,0-26.32,0-94.42,0-119.9,.03-13.32-.75-26.65-1.48-39.97-2.53h0Z"/>
  </g>
</svg>