<?xml version="1.0" encoding="UTF-8"?>
<svg id="Layer_1" data-name="Layer 1" xmlns="http://www.w3.org/2000/svg" viewBox="0 0 2472.52 501.67">
  <defs>
    <style>
      .cls-1 {
        fill: #fff;
      }
    </style>
  </defs>
  <path class="cls-1" d="M2304.03,461.66c-.41-.85-.29-1.6-.28-2.31,.02-4.67,.05-9.34,.09-14.01,.11-12.43,.24-24.86,.35-37.29,.08-8.59,.12-17.18,.21-25.77,.17-15.37,.38-30.73,.53-46.1,.14-13.94,.22-27.88,.34-41.82,.01-1.65,.14-3.31,.21-4.96,.02-.53,.06-1.06,.06-1.58,.1-13.41,.2-26.81,.31-40.22,.15-17.48,.29-34.96,.46-52.44,.07-6.85,.19-13.71,.28-20.56,0-.67,0-1.33,0-1.99-.78-.53-1.56-.39-2.28-.46-.67-.07-1.35-.16-2.03-.16-6.86,0-13.72-.14-20.58,.03-8.66,.22-17.32,.68-25.98,1.05-5.35,.23-10.69,.46-16.04,.73-6.7,.33-13.4,.74-20.1,1.05-6.55,.29-13.11,.51-19.66,.72-3.62,.11-7.24,.13-10.85,.17-.74,0-1.47-.06-2.12-.08-.42-.78-.09-1.32,.1-1.88,.99-2.95,2.35-5.72,4.05-8.31,1.65-2.52,3.39-4.98,5.19-7.4,1.75-2.36,3.65-4.6,5.44-6.93,1.38-1.79,2.7-3.62,4.12-5.54,.42-.04,.94-.13,1.45-.14,6.41-.12,12.82-.2,19.22-.36,4.97-.13,9.94-.36,14.91-.55,4.44-.16,8.89-.31,13.33-.49,5.87-.25,11.75-.45,17.62-.79,8.28-.49,16.55-1.07,24.79-1.99,.82-.09,1.66-.06,2.48-.16,.74-.08,1.49-.22,2.21-.42,1.34-.38,2.25-1.28,2.52-2.64,.35-1.77,.74-3.56,.79-5.34,.1-4.44,.06-8.89,0-13.33-.07-5.27-.21-10.54-.33-15.81-.12-5.5-.24-11-.38-16.5-.19-7.15-.4-14.31-.61-21.46-.09-3.01-.24-6.02-.35-9.03-.12-3.31-.18-6.62,.36-9.92,.36-2.21,1.15-4.2,2.44-6.01,.31-.43,.61-.87,.96-1.26,3.38-3.86,6.45-7.97,9.46-12.11,.76-1.05,1.62-1.66,2.95-1.74,2.78-.17,5.56-.45,8.34-.67,.36-.03,.73,.04,1.13,.07,.45,1.39,.51,2.74,.53,4.08,.08,5.12,.18,10.24,.18,15.37,0,6.56-.06,13.11-.15,19.66-.12,8.51-.33,17.02-.47,25.53-.13,8.21-.29,16.42-.28,24.63,0,6.63,.12,13.26,.74,19.86,.1,1.05,.32,2.08,.49,3.12,.19,1.08,.86,1.78,1.91,1.98,2,.37,4,.84,6.02,.94,5.87,.3,11.76,.32,17.63-.15,3.23-.26,6.48-.37,9.7-.66,5.33-.47,10.65-1.06,15.98-1.55,6.31-.58,12.61-1.17,18.92-1.63,14.97-1.1,29.98-1.17,44.98-1.05,5.04,.04,10.09,.41,15.13,.63,.22,0,.44,.08,.83,.15-.08,.41-.07,.87-.26,1.2-1.81,3.04-3.54,6.14-5.53,9.06-3.86,5.67-7.58,11.42-10.95,17.4-.37,.66-.79,1.28-1.22,1.9-1.37,2-3.31,3.03-5.69,3.24-.9,.08-1.81,.08-2.71,.08-6.93,0-13.87,.05-20.8,.33-6.1,.24-12.21,.32-18.31,.51-4.75,.15-9.49,.33-14.23,.55-5.57,.25-11.14,.58-16.71,.85-5.42,.27-10.84,.54-16.26,.79-1.73,.08-3.47,.08-5.2,.14-4.44,.14-8.88,.28-13.42,.43-.09,.49-.22,.9-.25,1.33-.04,.82-.01,1.66-.01,2.48,0,79.5,0,159,.01,238.49,0,2.86-.09,5.71-.44,8.57-.28,2.28-.86,4.43-1.93,6.45-.46,.87-.94,1.72-1.45,2.55-3.69,6.04-7.4,12.08-11.08,18.13-1.53,2.52-3.26,4.89-5.26,7.05-1.34,1.44-2.83,2.71-4.5,3.76-.3,.19-.64,.33-1.05,.54h0Z"/>
  <path class="cls-1" d="M1409.3,196.73c-3.98-4.81-7.67-9.28-11.37-13.73-.55-.65-1.18-1.24-1.71-1.9-1.6-2.02-1.74-3.14,.1-4.92,3.31-3.2,6.68-6.38,10.33-9.17,6.52-4.98,13.18-9.77,19.93-14.43,7.2-4.97,15.19-8.51,23.25-11.8,6.98-2.84,14.2-4.93,21.6-6.33,10.48-1.99,21.01-2.63,31.57-.51,6.18,1.24,12.52,1.84,18.35,4.53,1.86,.85,3.75,1.64,5.56,2.6,2.25,1.21,4.39,2.65,6.65,3.85,10.34,5.47,18.43,13.51,25.5,22.6,10.84,13.96,18.4,29.59,22.43,46.76,3.76,16.01,5.34,32.28,4.8,48.79-.55,16.52-3.46,32.6-8.16,48.35-7.27,24.34-18.78,46.51-35.59,65.72-10.48,11.99-22.75,21.65-37.69,27.58-14.64,5.81-29.79,7.41-45.28,4.74-4.5-.77-8.78-2.68-13.21-3.96-4.99-1.44-9.5-3.84-13.74-6.74-6.64-4.55-12.93-9.52-17.9-15.98-3.12-4.06-6.63-7.84-9.59-12.01-7.49-10.56-12.54-22.31-15.98-34.73-4.03-14.58-5.49-29.44-5.47-44.58,.02-17.04,2.49-33.67,6.53-50.14,.41-1.66,1.07-3.24,1.61-4.85,4.58-13.59,9.31-27.13,17.49-39.74h-.01Zm148.98,81.14c-.02-11.86-1.41-23.78-4.15-34.47-4.84-18.94-13.77-35.56-27.99-49.17-10.24-9.8-22.19-16.4-36.25-18.84-14.75-2.55-29.23-1.22-43.5,3.14-3.48,1.07-5.9,2.99-7.94,5.94-23.4,33.76-30.7,70.98-23.6,111.1,3.1,17.54,10.08,33.62,21.01,47.83,6.2,8.06,13.55,14.83,22.19,20.27,18.17,11.43,45.49,12.51,65.63-4.09,10.06-8.29,17.65-18.5,23.24-30.18,7.79-16.28,11.41-33.51,11.37-51.54h-.01Z"/>
  <path class="cls-1" d="M710.96,398.46c-7.56,3.33-14.73,6.51-22.14,9.79-.85-.83-1.87-1.51-2.47-2.45-1.37-2.16-2.56-4.43-3.76-6.69-18.62-34.97-37.21-69.94-55.83-104.91-16.45-30.89-32.92-61.78-49.37-92.67-.96-1.81-1.84-3.67-2.81-5.46-.37-.71-.91-1.33-1.74-2.53-.41,1.15-.75,1.69-.77,2.24-.41,10.92-.8,21.84-1.15,32.75-.22,7-.34,14-.55,21-.37,12.46-.78,24.91-1.15,37.37-.37,12.29-.68,24.58-1.09,36.87-.41,12.29-.95,24.57-1.37,36.85-.28,8.19-.48,16.38-.61,24.58-.07,5-1.05,9.85-2.28,14.64-1.2,4.66-3.39,8.93-6.4,12.73-1.84,2.32-4.05,4.17-7.02,4.87-2.03,.48-3.42-.19-3.93-2.21-.42-1.64-.64-3.37-.62-5.04,.61-38.09,.1-76.17,.2-114.25,.11-37.92,.02-75.84,.02-113.76,0-6.98-.03-6.96-3.82-12.79-4.66-7.16-9.25-14.35-13.9-21.52-2.96-4.56-3-6.06,3.01-6.78,12.39-1.45,24.78-2.81,37.18-4.2,4.41-.49,8.83-.99,13.23-1.5,2.12-.24,3.7,.61,4.72,2.56,.24,.45,.44,.93,.66,1.39,8.69,17.6,17.42,35.19,26.06,52.81,15.48,31.58,30.91,63.19,46.38,94.77,10.44,21.31,20.95,42.59,31.44,63.86,.2,.41,.56,.74,.99,1.31,1.03-1.55,.85-3.07,.87-4.53,.04-9.22,.13-18.44,.09-27.67-.16-31.09-.4-62.17-.55-93.26-.13-27.67-.19-55.35-.27-83.01,0-.84,.13-1.68,.19-2.45,3.42-1.7,19.81-5.44,25.64-5.83,.3,.83,.82,1.73,.91,2.66,.16,1.69,.11,3.41,.04,5.12-.49,14.51-1.05,29.01-1.51,43.53-.64,20.3-1.19,40.62-1.83,60.93-.4,12.8-.92,25.59-1.3,38.4-.26,8.54-.31,17.08-.57,25.6-.81,27.13-1.69,54.27-2.54,81.41-.05,1.7-.19,3.39-.32,5.48l.02-.02Z"/>
  <path class="cls-1" d="M1768.73,140.88c1-.41,1.75-.82,2.55-1,7-1.57,14-3.11,21.01-4.61,1.99-.43,2.93,.27,2.91,2.34-.04,5.46-.2,10.92-.36,16.38-.12,4.09-.36,8.19-.48,12.28-.38,13.32-.73,26.63-1.09,39.95-.46,17.07-.91,34.13-1.4,51.2-.31,10.75-.71,21.5-1.04,32.25-.62,20.48-1.21,40.96-1.85,61.44-.32,10.24-.73,20.48-1.05,30.71-.17,5.28-.25,10.57-.35,15.68-3.31,2.67-17.35,9.02-22.98,10.42-2.07-1.29-2.96-3.56-4.07-5.64-6.74-12.65-13.45-25.34-20.2-37.99-24.16-45.36-48.33-90.71-72.49-136.07-5.14-9.64-10.22-19.32-15.35-28.97-.87-1.64-1.85-3.22-2.76-4.79-1.91,.65-1.42,2.06-1.46,3.12-.36,9.9-.67,19.8-.97,29.7-.65,21.16-1.31,42.32-1.93,63.49-.4,13.48-.64,26.96-1.07,40.44-.48,15.19-1.12,30.37-1.62,45.56-.2,5.97-.22,11.95-1.3,17.86-1.18,6.48-3.55,12.45-7.52,17.75-1.69,2.24-3.77,3.93-6.48,4.81-2.77,.9-4.32,.1-4.76-2.77-.33-2.18-.45-4.41-.42-6.63,.12-6.66,.51-13.3,.51-19.96,.03-63.37,0-126.73-.01-190.1,0-5.46-.06-10.93,.12-16.39,.14-3.91-.8-7.29-3.05-10.56-4.74-6.89-9.24-13.96-13.8-20.98-1.29-1.99-2.42-4.08-3.55-6.03,1.07-2.34,3-2.53,4.83-2.78,2.87-.38,5.77-.63,8.66-.94,10.7-1.15,21.4-2.3,32.1-3.46,4.24-.46,8.47-.95,12.88-1.45,.6,.94,1.21,1.73,1.65,2.62,15.71,31.85,31.4,63.7,47.08,95.55,5.96,12.1,11.95,24.18,17.9,36.28,13.09,26.66,26.17,53.33,39.26,79.99,.43,.88,.93,1.73,1.37,2.55,1.29-.51,1.26-1.42,1.26-2.24-.05-8.71-.13-17.42-.21-26.12-.04-5.29-.14-10.58-.16-15.88-.11-25.1-.22-50.22-.3-75.32-.09-28.86-.12-57.73-.16-86.59,0-1.68,.09-3.36,.14-5.11v.03Z"/>
  <path class="cls-1" d="M916.9,146.46c-1.36,17.25-2.69,34.25-4.07,51.25-.03,.44-.52,.83-1,1.54-.82-.6-1.74-1.03-2.31-1.72-3.45-4.24-6.85-8.52-10.22-12.82-3.26-4.18-6.54-8.34-9.64-12.63-1.66-2.31-3.74-3.92-6.22-5.17-5.11-2.55-10.57-3.93-16.21-4.46-14.84-1.38-28.9,1.4-42.06,8.45-4.39,2.35-8.42,5.2-11.89,8.81-3.2,3.31-6.65,6.43-9.55,9.99-7.43,9.09-12.48,19.47-16.16,30.62-5.91,17.91-7.74,36.26-7.18,55.04,.29,9.78,1.55,19.41,3.13,28.99,3.11,18.82,10.28,36.07,21.75,51.38,3.06,4.08,6.57,7.85,10.19,11.46,3.64,3.62,7.95,6.44,12.79,8.35,1.11,.44,2.19,.95,3.28,1.45,15.58,7.19,30.77,5.64,44.97-3.22,14.78-9.21,23.7-22.86,26.84-40.05,.9-4.89,.71-9.85-.37-14.76-1.23-5.63-4.73-9.09-10.3-10.05-5.55-.95-11.17-1.56-16.79-1.96-11.76-.83-23.53-1.43-35.3-2.15-.64-.04-1.27-.33-1.85-.5-.05-3.36,2.47-11.34,7.14-22.66,.98-.14,2.13-.44,3.27-.46,22.55-.48,45.11-.92,67.66-1.38,6.16-.13,12.3-.31,18.46-.43,1.33-.02,2.65,.12,4.22,.19,.05,1.42,.22,2.59,.13,3.72-1.24,13.6-2.87,27.16-6.42,40.39-4.45,16.54-10.18,32.57-19.89,46.92-7.14,10.58-15.47,19.93-26.16,27.1-9.83,6.59-20.66,10.48-32.28,12.2-15.04,2.22-29.64,.55-43.69-5.38-9.05-3.8-17.22-8.96-24.37-15.77-7.45-7.11-14.42-14.55-19.84-23.36-7.48-12.14-13.46-24.88-16.67-38.87-2.33-10.16-4.6-20.34-5.07-30.77-.35-7.66-.18-15.37,0-23.04,.22-10.1,1.69-20.08,3.99-29.9,1.28-5.47,3.14-10.81,4.83-16.18,1.34-4.23,2.59-8.51,4.29-12.59,5.15-12.36,11.83-23.84,20.53-34.09,1.66-1.96,3.34-3.89,4.87-5.94,6.85-9.17,15.71-16.09,24.95-22.62,5.47-3.87,11.59-6.49,17.66-9.25,6.87-3.13,13.96-5.51,21.36-6.95,12.66-2.46,25.42-3.65,38.2-1.41,11,1.93,21.53,5.31,31.01,12.71v-.04Z"/>
  <path class="cls-1" d="M1186.53,142.93c.07,1.13,.21,1.98,.16,2.8-.45,7.15-.93,14.31-1.4,21.46-.07,1.2-.25,2.38-.3,3.57-.4,7.83-.75,15.68-1.18,23.52-.13,2.32,.14,4.78-1.47,6.56-1.55,.4-2.17-.51-2.82-1.26-3.51-3.98-6.98-7.96-10.47-11.95-3.26-3.73-6.56-7.42-9.79-11.18-1.52-1.77-3.52-2.75-5.62-3.4-3.58-1.1-7.2-2.2-10.88-2.86-14.17-2.54-28.21-2.33-41.97,2.51-5.87,2.06-11.21,5-15.77,9.29-1.61,1.52-3.3,2.97-4.95,4.46-12.26,11.05-13.88,31.85-5.44,44.16,3.37,4.91,7.72,8.72,12.9,11.47,5.12,2.71,10.33,5.35,15.74,7.38,9.09,3.42,18.36,6.4,27.6,9.45,11.92,3.92,23.19,9.13,33.53,16.24,14.61,10.05,22.27,24.04,23.8,41.62,1.8,20.66-3.75,39.2-15.85,55.88-9.69,13.38-21.81,23.92-36.85,31-8.93,4.2-18.38,6.27-28.17,6.87-9.98,.61-19.89-.18-29.33-3.51-9.01-3.17-17.88-6.82-25.71-12.49-.69-.5-1.43-.94-2.13-1.43-6.5-4.57-5.32-3.13-5.94-10.19-.52-5.95-1.18-11.89-1.65-17.85-.17-2.13-.94-4.4,.85-6.5,1.83-.14,3.14,1.06,4.58,1.84,4.36,2.33,8.56,5.01,13.06,7.04,11.09,5.01,22.61,8.88,34.8,9.93,10.39,.9,20.84,1.15,31.04-1.77,6.94-1.99,13.51-4.74,19.36-9.08,3.33-2.47,6.19-5.4,8.55-8.76,5.97-8.51,7.33-17.87,4.68-27.82-1.57-5.9-5.29-10.38-10.43-13.43-4.23-2.52-8.75-4.62-13.27-6.59-11.9-5.2-24.4-8.77-36.58-13.23-9.48-3.46-18.57-7.72-27.15-13.11-14.32-9.02-22.59-21.96-25.62-38.43-2.22-12.07-2.17-24.2,.34-36.15,3.54-16.8,10.6-31.94,22.43-44.77,12.35-13.38,26.86-23.07,44.46-28.01,11.99-3.37,24.19-4.1,36.56-3.23,10.5,.75,20.45,3.74,30.29,7.21,2.06,.73,4.01,1.82,5.98,2.73v.02Z"/>
  <path class="cls-1" d="M1838.33,406.24c-.15-1.94-.36-3.43-.36-4.92-.04-14.69-.01-29.38-.06-44.07-.06-21.01-.17-42.02-.27-63.02-.09-16.91-.24-33.82-.26-50.73-.02-21.86,.06-43.73,.1-65.59,0-4.96-1.32-9.57-3.99-13.84-4-6.37-8.03-12.71-11.98-19.1-1.24-2-2.79-3.91-2.75-6.84,1.02-.36,2.05-.99,3.13-1.06,2.55-.16,5.12-.06,7.68-.06h134.86c2.91,0,5.81-.12,8.72-.11,1.69,0,3.45-.06,4.71,1.41-.29,4.11-1.42,7.47-7.05,20.91-2.49,.72-5.21,.81-7.91,.97-7.67,.45-15.36,.77-23.03,1.28-11.93,.8-23.85,1.75-35.78,2.56-8,.55-16.03,.94-24.04,1.41-1.86,.11-3.76-.06-5.71,.97-.14,.92-.41,1.88-.44,2.86-.42,12.96-.81,25.94-1.21,38.9-.18,5.97-.34,11.95-.52,17.92-.13,4.09-.32,8.19-.4,12.29-.03,2.19,.13,4.39,.2,6.42,1.74,1.41,3.51,.93,5.15,.95,11.63,.13,23.24,.18,34.87,.28,16.4,.13,32.82,.26,49.22,.42,2,.02,4.07-.26,6.19,.79-.05,.75,.11,1.51-.17,2.01-3.39,6.11-6.85,12.18-10.37,18.42-2.4,.41-4.73,.91-7.1,1.18-8.48,.97-16.98,1.83-25.47,2.79-15.44,1.76-30.88,3.56-46.32,5.38-2.19,.26-4.35,.69-6.84,1.09-.19,1.61-.48,3.09-.55,4.57-.3,8.2-.5,16.38-.81,24.58-.41,10.4-.81,20.81-1.36,31.19-.26,4.97,.15,9.9,.65,14.82,.37,3.61,1.59,6.99,3.46,10.1,2,3.32,4.81,5.66,8.47,7.1,5.01,1.97,10.19,2.82,15.53,2.83,5.13,.01,10.25-.14,15.38-.15,17.6-.04,35.21-.07,52.81-.07,1.7,0,3.42,.12,5.1,.35,1.28,.18,2.2,1.24,2.06,2.52-.18,1.67-.38,3.44-1.09,4.94-5.38,11.39-14.14,18.24-26.95,19.12-8.35,.58-16.72,.77-25.08,1.18-7.17,.35-14.33,.79-21.49,1.19s-14.33,.75-21.49,1.2c-5.79,.36-11.58,.83-17.38,1.24-3.24,.22-6.49,.38-9.72,.61s-6.47,.49-10.39,.8h0Z"/>
  <path class="cls-1" d="M2144.19,143.46c-.17,4.37-.27,8.79-.55,13.22-.51,8.35-1.13,16.69-1.68,25.04-.32,4.94-.56,9.88-.87,14.83-.14,2.24-.18,2.23-2,4.76-.64-.48-1.39-.85-1.91-1.44-6.42-7.31-12.88-14.62-19.19-22.02-1.84-2.16-3.94-3.62-6.59-4.61-11.79-4.36-23.92-5.32-36.33-4.19-8.27,.76-16.13,2.84-23.5,6.67-5.82,3.02-10.93,6.99-15.36,11.82-9.3,10.15-12.61,26.33-6.03,39.65,3.27,6.63,8.5,11.61,15.01,14.96,6.06,3.12,12.26,6.06,18.62,8.5,7.96,3.05,16.15,5.5,24.24,8.2,9.09,3.02,17.97,6.56,26.21,11.5,3.95,2.36,7.85,4.87,11.46,7.73,13.04,10.3,19.25,24.34,20.15,40.49,1.3,23.22-6.17,43.68-21.63,61.14-7.88,8.9-16.75,16.57-27.42,21.99-6.73,3.42-13.67,6.22-21.22,7.22-5.25,.69-10.43,1.67-15.76,1.81-9.21,.24-18.02-1.75-26.66-4.49-11.19-3.54-21.19-9.4-30.68-16.69-.35-3.25-.74-6.63-1.08-10-.35-3.57-.8-7.14-.93-10.72-.12-3.33-1.29-6.73,.18-10.15,2.16-.34,3.58,1.02,5.18,1.89,4.5,2.45,8.91,5.05,13.51,7.3,10.7,5.23,22.13,8.31,33.89,9.46,10.17,.99,20.5,1.27,30.54-1.66,7.59-2.21,14.88-5.02,21.13-10.05,8.35-6.69,12.97-15.3,13.36-26.01,.36-10.01-3.53-17.92-12.13-23.33-6.99-4.39-14.63-7.4-22.32-10.19-8.18-2.98-16.49-5.59-24.71-8.43-10.53-3.64-20.54-8.39-29.92-14.41-1.15-.74-2.24-1.55-3.37-2.34-11.36-7.93-18.16-18.97-21.05-32.27-5.28-24.18-1.77-47.21,10.39-68.78,4.38-7.77,10.1-14.63,16.52-20.81,11.8-11.35,25.56-19.34,41.5-23.37,11.37-2.87,22.95-3.47,34.61-2.6,9.6,.72,18.86,3.01,27.88,6.35,2.87,1.06,5.76,2.08,8.5,4.06h.02Z"/>
  <path class="cls-1" d="M318.05,409.98c-1.19-1.52-.82-3.12-.78-4.62,.16-5.16-.53-10.17-1.92-15.17-6-21.71-11.8-43.48-17.8-65.21-12.96-46.89-26.1-93.73-38.92-140.66-2.2-8.06-5.3-15.34-10.73-21.75-3.96-4.68-7.33-9.87-10.93-14.85-.8-1.1-1.56-2.25-2.16-3.47-.97-1.99-.1-3.89,2.06-4.29,2.51-.47,5.08-.72,7.62-1,11.54-1.33,23.08-2.65,34.63-3.93,1.34-.15,2.71-.02,4.46-.02,5.87,23.92,11.32,48.01,16.93,72.07,5.62,24.1,11.02,48.25,16.72,72.33,5.7,24.04,11.01,48.19,16.96,72.17,1.57-.12,1.41-1.16,1.74-1.78,.31-.6,.44-1.29,.65-1.93,5.08-15.76,10.13-31.53,15.22-47.28,3.99-12.34,8.05-24.66,12.01-37.02,7.79-24.2,15.44-48.46,23.34-72.64,3.44-10.54,7.19-20.99,11.14-31.35,2.62-6.89,6.65-13.08,11.35-18.79,2.18-2.65,4.68-4.98,7.56-6.87,3.2-2.09,6.69-3.43,10.48-3.86,.99-.12,2.05-.04,3.03,.16,1.55,.32,2.43,1.38,2.21,2.95-.25,1.85-.66,3.7-1.26,5.46-3.48,10.17-7.05,20.31-10.59,30.48-13.96,40.15-27.93,80.29-41.86,120.45-13.04,37.57-26.04,75.16-38.98,112.76-.89,2.56-2.16,3.88-4.91,4.37-4.87,.87-9.65,2.21-14.49,3.27-.93,.2-1.94,.03-2.81,.03h.03Z"/>
  <path class="cls-1" d="M1369.5,138.85c.93,8-.92,14.58-6.65,19.86-2.94,2.7-6.43,4.45-10.17,5.79-5.98,2.15-12.18,3.41-18.47,4.06-7.64,.79-15.32,1.25-22.99,1.84-1.53,.12-3.07,.17-4.85,.27-.21,.97-.59,1.92-.61,2.87-.37,15.54-.73,31.08-1.05,46.6-.46,22.37-.88,44.73-1.33,67.09-.24,11.95-.5,23.89-.76,35.84-.34,16.39-.67,32.78-1.04,49.17-.19,8.7-.43,17.4-.65,26.1-.05,2.19,.1,4.42-.63,6.78-8.92,1.81-17.77,3.62-26.62,5.38-.61,.12-1.3-.16-2.24-.31-.14-1.4-.37-2.71-.4-4.04-.1-8.2-.13-16.39-.21-24.59-.31-31.08-.65-62.16-.96-93.24-.16-16.22-.26-32.44-.42-48.67-.19-20.14-.42-40.29-.64-60.43-.02-1.86-.07-3.73-.13-5.85-1.14-.22-2.09-.59-3.05-.57-7.68,.13-15.37,.36-23.06,.51-9.05,.17-18.11,.31-27.16,.44-.66,0-1.33-.15-1.77-.21-.32-.28-.48-.36-.58-.5-.09-.13-.17-.3-.16-.46,.58-11.4,1.18-22.8,1.74-33.85,1.5-1.76,3.14-1.31,4.61-1.31,10.77-.04,21.53-.06,32.31,0,18.28,.1,36.57,.25,54.85,.41,19.82,.17,39.65,.38,59.47,.6,.99,.01,2,.24,3.6,.45h.01Z"/>
  <path class="cls-1" d="M14.76,143.49c.77-1.85,2.45-1.92,3.92-2.13,4.06-.56,8.14-.97,12.21-1.45,7.47-.89,14.93-1.81,22.4-2.65,5.94-.67,11.89-1.26,17.85-1.86,.46-.04,.95,.16,1.72,.31,.05,1.36,.18,2.69,.14,4.01-.79,28.51-1.56,57.02-2.4,85.53-.46,15.54-1.11,31.07-1.6,46.59-.35,11.09-.52,22.2-.84,33.29-.36,12.46-.84,24.92-1.19,37.38-.18,6.49-.19,12.98-.27,19.47,0,.85,.04,1.71,.17,2.55,.76,5.18,3.92,8.93,9.05,9.88,4.52,.83,9.15,1.39,13.73,1.47,15.55,.31,31.11,.36,46.66,.53,4.79,.05,9.58,.17,14.35,.26,.68,.01,1.37,.03,2.05,.12,3.43,.48,4.42,1.68,4.17,5.13-.21,2.93-.87,5.76-2.51,8.25-3.58,5.43-8.12,9.5-14.62,11.33-5.94,1.68-11.85,2.84-18.09,2.99-16.91,.42-33.81,1.28-50.71,2.01-10.08,.44-20.14,.97-30.22,1.44-1.36,.06-2.71,0-3.99,0-1.55-1.24-1.1-2.89-1.11-4.36-.1-10.08-.16-20.15-.2-30.23-.21-55.86-.43-111.73-.62-167.58-.03-8.71-.05-17.43,.07-26.14,.04-2.87-.75-5.27-2.33-7.64-5.21-7.81-10.28-15.73-15.38-23.62-1-1.56-2.21-3.05-2.39-4.92l-.02,.02Z"/>
  <path class="cls-1" d="M159.22,143.3c.94-1.78,2.66-2.05,4.36-2.24,10.36-1.13,20.71-2.22,31.07-3.34,6.79-.74,13.57-1.54,20.36-2.3,.64-.07,1.3,0,1.98,0,.21,.64,.52,1.11,.5,1.58-2.91,89.55-5.85,179.1-8.77,268.52-4,1.68-23.65,4.72-28.71,4.45-.05-1.99-.15-4.02-.15-6.04-.04-20.83-.04-41.67-.11-62.49-.11-37.22-.25-74.44-.37-111.67-.05-16.56-.17-33.13-.12-49.68,0-3.03-.68-5.58-2.37-8.13-5.29-7.96-10.39-16.05-15.51-24.13-.89-1.4-2.23-2.63-2.16-4.51h.01Z"/>
  <path class="cls-1" d="M440.34,143.65c1.67-2.38,3.7-2.28,5.49-2.52,5.76-.79,11.52-1.5,17.29-2.14,11.04-1.22,22.08-2.38,33.13-3.56,.65-.07,1.31-.06,2.3-.11,.1,1.46,.3,2.79,.26,4.09-.35,11.61-.75,23.22-1.13,34.83-.43,12.97-.89,25.94-1.27,38.91-.68,22.87-1.27,45.75-2,68.62-.35,11.09-.97,22.17-1.38,33.27-.44,11.78-.76,23.56-1.13,35.34-.52,16.56-1.06,33.12-1.59,49.68-.06,1.86-.18,3.72-.27,5.48-3.99,1.5-19.52,4.11-27.87,4.72-1.04-1.51-.64-3.26-.66-4.91-.1-12.13-.14-24.26-.19-36.39-.25-57.57-.49-115.15-.73-172.71-.02-5.47-.1-10.94,.12-16.39,.13-3.09-.81-5.58-2.48-8.1-5.11-7.68-10.07-15.46-15.05-23.22-1-1.56-1.87-3.21-2.83-4.88h0Z"/>
</svg>