<?xml version="1.0" encoding="UTF-8"?>
<svg id="Layer_1" data-name="Layer 1" xmlns="http://www.w3.org/2000/svg" viewBox="0 0 2472.52 956.9">
  <defs>
    <style>
      .cls-1 {
        fill: #fff;
      }
    </style>
  </defs>
  <path class="cls-1" d="M2126.54,941.45c-.88-1.8-.61-3.39-.6-4.91,.04-9.91,.11-19.82,.2-29.73,.24-26.37,.51-52.75,.74-79.12,.16-18.22,.25-36.44,.45-54.67,.35-32.6,.81-65.2,1.13-97.8,.3-29.57,.47-59.14,.73-88.72,.03-3.51,.29-7.02,.44-10.53,.05-1.12,.12-2.24,.12-3.35,.22-28.45,.42-56.89,.66-85.34,.31-37.09,.62-74.17,.97-111.26,.14-14.54,.4-29.09,.6-43.63,.02-1.42,0-2.83,0-4.22-1.66-1.13-3.3-.83-4.84-.98-1.43-.14-2.87-.34-4.3-.34-14.55-.02-29.11-.3-43.66,.06-18.38,.46-36.75,1.44-55.12,2.23-11.35,.48-22.69,.98-34.03,1.55-14.21,.71-28.42,1.58-42.64,2.22-13.9,.62-27.81,1.09-41.72,1.53-7.67,.24-15.35,.27-23.03,.36-1.56,.02-3.11-.12-4.49-.18-.9-1.65-.19-2.81,.21-3.99,2.09-6.25,4.99-12.13,8.59-17.63,3.5-5.34,7.2-10.56,11.02-15.69,3.72-5,7.75-9.77,11.55-14.71,2.92-3.79,5.72-7.69,8.74-11.76,.9-.09,1.99-.28,3.08-.3,13.59-.26,27.19-.43,40.78-.77,10.55-.27,21.09-.77,31.64-1.16,9.43-.35,18.86-.65,28.29-1.04,12.46-.52,24.93-.95,37.38-1.68,17.56-1.04,35.11-2.26,52.59-4.23,1.75-.2,3.52-.13,5.27-.34,1.58-.18,3.16-.46,4.69-.89,2.85-.8,4.77-2.72,5.34-5.6,.74-3.75,1.58-7.55,1.67-11.34,.22-9.42,.12-18.86,0-28.29-.15-11.19-.45-22.37-.7-33.55-.26-11.67-.5-23.33-.81-35-.4-15.18-.84-30.36-1.3-45.53-.19-6.38-.51-12.77-.75-19.15-.26-7.03-.39-14.04,.76-21.04,.77-4.69,2.45-8.91,5.17-12.75,.65-.91,1.29-1.84,2.03-2.68,7.17-8.19,13.68-16.9,20.08-25.69,1.62-2.22,3.44-3.52,6.26-3.69,5.9-.37,11.79-.96,17.69-1.43,.76-.06,1.54,.09,2.39,.15,.96,2.94,1.08,5.81,1.13,8.66,.18,10.87,.39,21.73,.39,32.6,0,13.91-.12,27.82-.32,41.72-.26,18.06-.7,36.11-.99,54.17-.27,17.42-.61,34.84-.6,52.26,0,14.06,.26,28.13,1.56,42.14,.21,2.22,.67,4.42,1.05,6.62,.4,2.3,1.82,3.78,4.05,4.2,4.24,.79,8.49,1.78,12.77,1.99,12.46,.63,24.94,.68,37.41-.31,6.85-.55,13.74-.78,20.58-1.39,11.31-1,22.59-2.25,33.9-3.28,13.38-1.22,26.75-2.48,40.15-3.46,31.77-2.33,63.61-2.49,95.44-2.23,10.7,.09,21.4,.86,32.1,1.34,.47,.02,.94,.16,1.76,.31-.18,.88-.14,1.84-.56,2.54-3.85,6.45-7.51,13.03-11.73,19.23-8.19,12.03-16.09,24.23-23.23,36.92-.78,1.39-1.67,2.72-2.58,4.04-2.91,4.24-7.02,6.43-12.07,6.87-1.91,.17-3.84,.18-5.75,.17-14.71-.02-29.42,.1-44.13,.69-12.94,.51-25.9,.67-38.85,1.08-10.07,.31-20.14,.7-30.2,1.16-11.82,.54-23.63,1.22-35.45,1.81-11.5,.58-23,1.14-34.5,1.67-3.67,.17-7.36,.18-11.03,.29-9.42,.29-18.84,.6-28.48,.92-.2,1.03-.47,1.92-.52,2.82-.08,1.75-.03,3.52-.03,5.27,.01,168.66,.02,337.33,.03,505.99,0,6.07-.19,12.12-.94,18.18-.6,4.84-1.83,9.39-4.09,13.68-.97,1.84-2,3.64-3.08,5.42-7.83,12.82-15.69,25.62-23.5,38.46-3.25,5.35-6.91,10.37-11.17,14.96-2.84,3.06-6,5.76-9.54,7.97-.64,.4-1.35,.7-2.23,1.15Z"/>
  <path class="cls-1" d="M1319.72,461.3c-3.72-4.5-7.18-8.68-10.64-12.85-.51-.61-1.1-1.16-1.6-1.78-1.5-1.89-1.63-2.94,.09-4.6,3.1-2.99,6.25-5.97,9.67-8.58,6.1-4.66,12.33-9.14,18.65-13.5,6.74-4.65,14.21-7.96,21.76-11.04,6.53-2.66,13.29-4.61,20.21-5.92,9.81-1.86,19.66-2.46,29.54-.48,5.78,1.16,11.72,1.72,17.17,4.24,1.74,.8,3.51,1.53,5.2,2.43,2.11,1.13,4.11,2.48,6.22,3.6,9.68,5.12,17.25,12.64,23.86,21.15,10.14,13.06,17.22,27.69,20.99,43.76,3.52,14.98,5,30.21,4.49,45.66-.51,15.46-3.24,30.51-7.64,45.24-6.8,22.78-17.57,43.52-33.3,61.5-9.81,11.22-21.29,20.26-35.27,25.81-13.7,5.44-27.88,6.93-42.37,4.44-4.21-.72-8.22-2.51-12.36-3.71-4.67-1.35-8.89-3.59-12.86-6.31-6.21-4.26-12.1-8.91-16.75-14.95-2.92-3.8-6.2-7.34-8.97-11.24-7.01-9.88-11.73-20.88-14.95-32.5-3.77-13.64-5.14-27.55-5.12-41.72,.02-15.95,2.33-31.51,6.11-46.92,.38-1.55,1-3.03,1.51-4.54,4.29-12.72,8.71-25.39,16.37-37.19Zm139.41,75.93c-.02-11.1-1.32-22.25-3.88-32.26-4.53-17.72-12.89-33.28-26.19-46.01-9.58-9.17-20.76-15.35-33.92-17.63-13.8-2.39-27.35-1.14-40.71,2.94-3.26,1-5.52,2.8-7.43,5.56-21.9,31.59-28.73,66.42-22.08,103.96,2.9,16.41,9.43,31.46,19.66,44.76,5.8,7.54,12.68,13.88,20.76,18.97,17,10.7,42.57,11.71,61.41-3.83,9.41-7.76,16.52-17.31,21.75-28.24,7.29-15.23,10.68-31.36,10.64-48.23Z"/>
  <path class="cls-1" d="M666.24,650.07c-7.07,3.12-13.78,6.09-20.72,9.16-.8-.78-1.75-1.41-2.31-2.29-1.28-2.02-2.4-4.15-3.52-6.26-17.42-32.72-34.82-65.45-52.24-98.17-15.39-28.91-30.81-57.81-46.2-86.72-.9-1.69-1.72-3.43-2.63-5.11-.35-.66-.85-1.24-1.63-2.37-.38,1.08-.7,1.58-.72,2.1-.38,10.22-.75,20.44-1.08,30.65-.21,6.55-.32,13.1-.51,19.65-.35,11.66-.73,23.31-1.08,34.97-.35,11.5-.64,23-1.02,34.5-.38,11.5-.89,22.99-1.28,34.48-.26,7.66-.45,15.33-.57,23-.07,4.68-.98,9.22-2.13,13.7-1.12,4.36-3.17,8.36-5.99,11.91-1.72,2.17-3.79,3.9-6.57,4.56-1.9,.45-3.2-.18-3.68-2.07-.39-1.53-.6-3.15-.58-4.72,.57-35.64,.09-71.28,.19-106.91,.1-35.48,.02-70.97,.02-106.45,0-6.53-.03-6.51-3.57-11.97-4.36-6.7-8.66-13.43-13.01-20.14-2.77-4.27-2.81-5.67,2.82-6.34,11.59-1.36,23.19-2.63,34.79-3.93,4.13-.46,8.26-.93,12.38-1.4q2.98-.34,4.42,2.4c.22,.42,.41,.87,.62,1.3,8.13,16.47,16.3,32.93,24.39,49.42,14.49,29.55,28.92,59.13,43.4,88.68,9.77,19.94,19.6,39.85,29.42,59.76,.19,.38,.52,.69,.93,1.23,.96-1.45,.8-2.87,.81-4.24,.04-8.63,.12-17.26,.08-25.89-.15-29.09-.37-58.18-.51-87.27-.12-25.89-.18-51.79-.25-77.68,0-.79,.12-1.57,.18-2.29,3.2-1.59,18.54-5.09,23.99-5.46,.28,.78,.77,1.62,.85,2.49,.15,1.58,.1,3.19,.04,4.79-.46,13.58-.98,27.15-1.41,40.73-.6,19-1.11,38.01-1.71,57.02-.37,11.98-.86,23.95-1.22,35.93-.24,7.99-.29,15.98-.53,23.96-.76,25.39-1.58,50.78-2.38,76.18-.05,1.59-.18,3.17-.3,5.13Z"/>
  <path class="cls-1" d="M1656.06,409.04c.94-.38,1.64-.77,2.39-.94,6.55-1.47,13.1-2.91,19.66-4.31,1.86-.4,2.74,.25,2.72,2.19-.04,5.11-.19,10.22-.34,15.33-.11,3.83-.34,7.66-.45,11.49-.36,12.46-.68,24.92-1.02,37.38-.43,15.97-.85,31.94-1.31,47.91-.29,10.06-.66,20.12-.97,30.18-.58,19.16-1.13,38.33-1.73,57.49-.3,9.58-.68,19.16-.98,28.74-.16,4.94-.23,9.89-.33,14.67-3.1,2.5-16.24,8.44-21.5,9.75-1.94-1.21-2.77-3.33-3.81-5.28-6.31-11.84-12.59-23.71-18.9-35.55-22.61-42.45-45.23-84.88-67.83-127.33-4.81-9.02-9.56-18.08-14.36-27.11-.81-1.53-1.73-3.01-2.58-4.48-1.79,.61-1.33,1.93-1.37,2.92-.34,9.26-.63,18.53-.91,27.79-.61,19.8-1.23,39.6-1.81,59.41-.37,12.61-.6,25.23-1,37.84-.45,14.21-1.05,28.42-1.52,42.63-.19,5.59-.21,11.18-1.22,16.71-1.1,6.06-3.32,11.65-7.04,16.61-1.58,2.1-3.53,3.68-6.06,4.5-2.59,.84-4.04,.09-4.45-2.59-.31-2.04-.42-4.13-.39-6.2,.11-6.23,.48-12.45,.48-18.68,.03-59.3,0-118.59-.01-177.89,0-5.11-.06-10.23,.11-15.34,.13-3.66-.75-6.82-2.85-9.88-4.44-6.45-8.65-13.06-12.91-19.63-1.21-1.86-2.26-3.82-3.32-5.64,1-2.19,2.81-2.37,4.52-2.6,2.69-.36,5.4-.59,8.1-.88,10.01-1.08,20.03-2.15,30.04-3.24,3.97-.43,7.93-.89,12.05-1.36,.56,.88,1.13,1.62,1.54,2.45,14.7,29.8,29.38,59.61,44.06,89.41,5.58,11.32,11.18,22.63,16.75,33.95,12.25,24.95,24.49,49.9,36.74,74.85,.4,.82,.87,1.62,1.28,2.39,1.21-.48,1.18-1.33,1.18-2.1-.05-8.15-.12-16.3-.2-24.44-.04-4.95-.13-9.9-.15-14.86-.1-23.49-.21-46.99-.28-70.48-.08-27.01-.11-54.02-.15-81.03,0-1.57,.08-3.14,.13-4.78Z"/>
  <path class="cls-1" d="M858.95,414.26c-1.27,16.14-2.52,32.05-3.81,47.96-.03,.41-.49,.78-.94,1.44-.77-.56-1.63-.96-2.16-1.61-3.23-3.97-6.41-7.97-9.56-12-3.05-3.91-6.12-7.8-9.02-11.82-1.55-2.16-3.5-3.67-5.82-4.84-4.78-2.39-9.89-3.68-15.17-4.17-13.89-1.29-27.04,1.31-39.36,7.91-4.11,2.2-7.88,4.87-11.13,8.24-2.99,3.1-6.22,6.02-8.94,9.35-6.95,8.51-11.68,18.22-15.12,28.65-5.53,16.76-7.24,33.93-6.72,51.5,.27,9.15,1.45,18.16,2.93,27.13,2.91,17.61,9.62,33.75,20.35,48.08,2.86,3.82,6.15,7.35,9.54,10.72,3.41,3.39,7.44,6.03,11.97,7.81,1.04,.41,2.05,.89,3.07,1.36,14.58,6.73,28.79,5.28,42.08-3.01,13.83-8.62,22.18-21.39,25.12-37.48,.84-4.58,.66-9.22-.35-13.81-1.15-5.27-4.43-8.51-9.64-9.4-5.19-.89-10.45-1.46-15.71-1.83-11-.78-22.02-1.34-33.03-2.01-.6-.04-1.19-.31-1.73-.47-.05-3.14,2.31-10.61,6.68-21.2,.92-.13,1.99-.41,3.06-.43,21.1-.45,42.21-.86,63.31-1.29,5.76-.12,11.51-.29,17.27-.4,1.24-.02,2.48,.11,3.95,.18,.05,1.33,.21,2.42,.12,3.48-1.16,12.73-2.69,25.42-6.01,37.8-4.16,15.48-9.53,30.48-18.61,43.91-6.68,9.9-14.48,18.65-24.48,25.36-9.2,6.17-19.33,9.81-30.21,11.42-14.07,2.08-27.74,.51-40.88-5.03-8.47-3.56-16.11-8.38-22.8-14.76-6.97-6.65-13.49-13.62-18.57-21.86-7-11.36-12.6-23.28-15.6-36.37-2.18-9.51-4.3-19.03-4.74-28.79-.33-7.17-.17-14.38,0-21.56,.21-9.45,1.58-18.79,3.73-27.98,1.2-5.12,2.94-10.12,4.52-15.14,1.25-3.96,2.42-7.96,4.01-11.78,4.82-11.57,11.07-22.31,19.21-31.9,1.55-1.83,3.13-3.64,4.56-5.56,6.41-8.58,14.7-15.06,23.35-21.17,5.12-3.62,10.85-6.07,16.53-8.66,6.43-2.93,13.06-5.16,19.99-6.5,11.85-2.3,23.79-3.42,35.75-1.32,10.29,1.81,20.15,4.97,29.02,11.89Z"/>
  <path class="cls-1" d="M1111.26,410.96c.07,1.06,.2,1.85,.15,2.62-.42,6.69-.87,13.39-1.31,20.08-.07,1.12-.23,2.23-.28,3.34-.37,7.33-.7,14.67-1.1,22.01-.12,2.17,.13,4.47-1.38,6.14-1.45,.37-2.03-.48-2.64-1.18-3.28-3.72-6.53-7.45-9.8-11.18-3.05-3.49-6.14-6.94-9.16-10.46-1.42-1.66-3.29-2.57-5.26-3.18-3.35-1.03-6.74-2.06-10.18-2.68-13.26-2.38-26.4-2.18-39.27,2.35-5.49,1.93-10.49,4.68-14.76,8.69-1.51,1.42-3.09,2.78-4.63,4.17-11.47,10.34-12.99,29.8-5.09,41.32,3.15,4.59,7.22,8.16,12.07,10.73,4.79,2.54,9.67,5.01,14.73,6.91,8.51,3.2,17.18,5.99,25.83,8.84,11.15,3.67,21.7,8.54,31.38,15.2,13.67,9.4,20.84,22.5,22.27,38.95,1.68,19.33-3.51,36.68-14.83,52.29-9.07,12.52-20.41,22.38-34.48,29.01-8.36,3.93-17.2,5.87-26.36,6.43-9.34,.57-18.61-.17-27.45-3.28-8.43-2.97-16.73-6.38-24.06-11.69-.65-.47-1.34-.88-1.99-1.34-6.08-4.28-4.98-2.93-5.56-9.54-.49-5.57-1.1-11.13-1.54-16.7-.16-1.99-.88-4.12,.8-6.08,1.71-.13,2.94,.99,4.29,1.72,4.08,2.18,8.01,4.69,12.22,6.59,10.38,4.69,21.16,8.31,32.56,9.29,9.72,.84,19.5,1.08,29.05-1.66,6.49-1.86,12.64-4.44,18.12-8.5,3.12-2.31,5.79-5.05,8-8.2,5.59-7.96,6.86-16.72,4.38-26.03-1.47-5.52-4.95-9.71-9.76-12.57-3.96-2.36-8.19-4.32-12.42-6.17-11.14-4.87-22.83-8.21-34.23-12.38-8.87-3.24-17.38-7.22-25.41-12.27-13.4-8.44-21.14-20.55-23.97-35.96-2.08-11.29-2.03-22.65,.32-33.83,3.31-15.72,9.92-29.89,20.99-41.89,11.56-12.52,25.13-21.59,41.6-26.21,11.22-3.15,22.64-3.84,34.21-3.02,9.83,.7,19.14,3.5,28.34,6.75,1.93,.68,3.75,1.7,5.6,2.55Z"/>
  <path class="cls-1" d="M1721.19,657.35c-.14-1.82-.34-3.21-.34-4.6-.04-13.75-.01-27.49-.06-41.24-.06-19.66-.16-39.32-.25-58.97-.08-15.82-.22-31.65-.24-47.47-.02-20.46,.06-40.92,.09-61.38q.01-6.96-3.73-12.95c-3.74-5.96-7.51-11.89-11.21-17.87-1.16-1.87-2.61-3.66-2.57-6.4,.95-.34,1.92-.93,2.93-.99,2.39-.15,4.79-.06,7.19-.06,42.07,0,84.13,0,126.2,0,2.72,0,5.44-.11,8.16-.1,1.58,0,3.23-.06,4.41,1.32-.27,3.85-1.33,6.99-6.6,19.57-2.33,.67-4.88,.76-7.4,.91-7.18,.42-14.37,.72-21.55,1.2-11.16,.75-22.32,1.64-33.48,2.4-7.49,.51-15,.88-22.5,1.32-1.74,.1-3.52-.06-5.34,.91-.13,.86-.38,1.76-.41,2.68-.39,12.13-.76,24.27-1.13,36.4-.17,5.59-.32,11.18-.49,16.77-.12,3.83-.3,7.66-.37,11.5-.03,2.05,.12,4.11,.19,6.01,1.63,1.32,3.28,.87,4.82,.89,10.88,.12,21.75,.17,32.63,.26,15.35,.12,30.71,.24,46.06,.39,1.87,.02,3.81-.24,5.79,.74-.05,.7,.1,1.41-.16,1.88-3.17,5.72-6.41,11.4-9.7,17.24-2.25,.38-4.43,.85-6.64,1.1-7.94,.91-15.89,1.71-23.83,2.61-14.45,1.65-28.9,3.33-43.34,5.03-2.05,.24-4.07,.65-6.4,1.02-.18,1.51-.45,2.89-.51,4.28-.28,7.67-.47,15.33-.76,23-.38,9.73-.76,19.47-1.27,29.19-.24,4.65,.14,9.26,.61,13.87,.35,3.38,1.49,6.54,3.24,9.45,1.87,3.11,4.5,5.3,7.93,6.64,4.69,1.84,9.54,2.64,14.53,2.65,4.8,.01,9.59-.13,14.39-.14,16.47-.04,32.95-.07,49.42-.07,1.59,0,3.2,.11,4.77,.33,1.2,.17,2.06,1.16,1.93,2.36-.17,1.56-.36,3.22-1.02,4.62-5.03,10.66-13.23,17.07-25.22,17.89-7.81,.54-15.65,.72-23.47,1.1-6.71,.33-13.41,.74-20.11,1.11-6.7,.37-13.41,.7-20.11,1.12-5.42,.34-10.84,.78-16.26,1.16-3.03,.21-6.07,.36-9.1,.57-3.03,.21-6.05,.46-9.72,.75Z"/>
  <path class="cls-1" d="M2007.41,411.45c-.16,4.09-.25,8.23-.51,12.37-.48,7.81-1.06,15.62-1.57,23.43-.3,4.62-.52,9.25-.81,13.88-.13,2.1-.17,2.09-1.87,4.45-.6-.45-1.3-.8-1.79-1.35-6.01-6.84-12.05-13.68-17.96-20.61-1.72-2.02-3.69-3.39-6.17-4.31-11.03-4.08-22.38-4.98-34-3.92-7.74,.71-15.09,2.66-21.99,6.24-5.45,2.83-10.23,6.54-14.37,11.06-8.7,9.5-11.8,24.64-5.64,37.1,3.06,6.2,7.95,10.86,14.05,14,5.67,2.92,11.47,5.67,17.42,7.95,7.45,2.85,15.11,5.15,22.68,7.67,8.51,2.83,16.82,6.14,24.53,10.76,3.7,2.21,7.35,4.56,10.72,7.23,12.2,9.64,18.01,22.78,18.86,37.89,1.22,21.73-5.77,40.87-20.24,57.21-7.37,8.33-15.67,15.51-25.66,20.58-6.3,3.2-12.79,5.82-19.86,6.76-4.91,.65-9.76,1.56-14.75,1.69-8.62,.22-16.86-1.64-24.95-4.2-10.47-3.31-19.83-8.8-28.71-15.62-.33-3.04-.69-6.2-1.01-9.36-.33-3.34-.75-6.68-.87-10.03-.11-3.12-1.21-6.3,.17-9.5,2.02-.32,3.35,.95,4.85,1.77,4.21,2.29,8.34,4.73,12.64,6.83,10.01,4.89,20.71,7.78,31.71,8.85,9.52,.93,19.18,1.19,28.58-1.55,7.1-2.07,13.92-4.7,19.77-9.4,7.81-6.26,12.14-14.32,12.5-24.34,.34-9.37-3.3-16.77-11.35-21.83-6.54-4.11-13.69-6.92-20.89-9.54-7.65-2.79-15.43-5.23-23.12-7.89-9.85-3.41-19.22-7.85-28-13.48-1.08-.69-2.1-1.45-3.15-2.19-10.63-7.42-16.99-17.75-19.7-30.2-4.94-22.63-1.66-44.18,9.72-64.36,4.1-7.27,9.45-13.69,15.46-19.47,11.04-10.62,23.92-18.1,38.83-21.87,10.64-2.69,21.48-3.25,32.39-2.43,8.98,.67,17.65,2.82,26.09,5.94,2.69,.99,5.39,1.95,7.95,3.8Z"/>
  <path class="cls-1" d="M298.57,660.85c-1.11-1.42-.77-2.92-.73-4.32,.15-4.83-.5-9.52-1.8-14.2-5.61-20.32-11.04-40.69-16.66-61.02-12.13-43.88-24.42-87.71-36.42-131.62-2.06-7.54-4.96-14.35-10.04-20.35-3.71-4.38-6.86-9.24-10.23-13.9-.75-1.03-1.46-2.11-2.02-3.25-.91-1.86-.09-3.64,1.93-4.01,2.35-.44,4.75-.67,7.13-.94,10.8-1.24,21.6-2.48,32.41-3.68,1.25-.14,2.54-.02,4.17-.02,5.49,22.38,10.59,44.93,15.84,67.44,5.26,22.55,10.31,45.15,15.65,67.68,5.33,22.5,10.3,45.09,15.87,67.53,1.47-.11,1.32-1.09,1.63-1.67,.29-.56,.41-1.21,.61-1.81,4.75-14.75,9.48-29.5,14.24-44.24,3.73-11.55,7.53-23.08,11.24-34.64,7.29-22.65,14.45-45.35,21.84-67.97,3.22-9.86,6.73-19.64,10.42-29.34,2.45-6.45,6.22-12.24,10.62-17.58,2.04-2.48,4.38-4.66,7.07-6.43,2.99-1.96,6.26-3.21,9.81-3.61,.93-.11,1.92-.04,2.84,.15,1.45,.3,2.27,1.29,2.07,2.76-.23,1.73-.62,3.46-1.18,5.11-3.26,9.52-6.6,19.01-9.91,28.52-13.06,37.57-26.14,75.13-39.17,112.71-12.2,35.16-24.37,70.33-36.48,105.52-.83,2.4-2.02,3.63-4.59,4.09-4.56,.81-9.03,2.07-13.56,3.06-.87,.19-1.82,.03-2.63,.03Z"/>
  <path class="cls-1" d="M1282.48,407.14c.87,7.49-.86,13.64-6.22,18.58-2.75,2.53-6.02,4.16-9.52,5.42-5.6,2.01-11.4,3.19-17.28,3.8-7.15,.74-14.34,1.17-21.51,1.72-1.43,.11-2.87,.16-4.54,.25-.2,.91-.55,1.8-.57,2.69-.35,14.54-.68,29.08-.98,43.61-.43,20.93-.82,41.86-1.24,62.78-.22,11.18-.47,22.36-.71,33.54-.32,15.34-.63,30.67-.97,46.01-.18,8.14-.4,16.28-.61,24.42-.05,2.05,.09,4.14-.59,6.34-8.35,1.69-16.63,3.39-24.91,5.03-.57,.11-1.22-.15-2.1-.29-.13-1.31-.35-2.54-.37-3.78-.09-7.67-.12-15.34-.2-23.01-.29-29.08-.61-58.17-.9-87.25-.15-15.18-.24-30.36-.39-45.54-.18-18.85-.39-37.7-.6-56.55-.02-1.74-.07-3.49-.12-5.47-1.07-.21-1.96-.55-2.85-.53-7.19,.12-14.38,.34-21.58,.48-8.47,.16-16.95,.29-25.42,.41-.62,0-1.24-.14-1.66-.2-.3-.26-.45-.34-.54-.47-.08-.12-.16-.28-.15-.43,.54-10.67,1.1-21.34,1.63-31.68,1.4-1.65,2.94-1.23,4.31-1.23,10.08-.04,20.15-.06,30.23,0,17.11,.09,34.22,.23,51.33,.38,18.55,.16,37.1,.36,55.65,.56,.93,.01,1.87,.22,3.37,.42Z"/>
  <path class="cls-1" d="M14.76,411.48c.72-1.73,2.29-1.8,3.67-1.99,3.8-.52,7.62-.91,11.43-1.36,6.99-.83,13.97-1.69,20.96-2.48,5.56-.63,11.13-1.18,16.7-1.74,.43-.04,.89,.15,1.61,.29,.05,1.27,.17,2.52,.13,3.75-.74,26.68-1.46,53.36-2.25,80.04-.43,14.54-1.04,29.07-1.5,43.6-.33,10.38-.49,20.77-.79,31.15-.34,11.66-.79,23.32-1.11,34.98-.17,6.07-.18,12.15-.25,18.22,0,.8,.04,1.6,.16,2.39,.71,4.85,3.67,8.36,8.47,9.25,4.23,.78,8.56,1.3,12.85,1.38,14.55,.29,29.11,.34,43.66,.5,4.48,.05,8.96,.16,13.43,.24,.64,.01,1.28,.03,1.92,.11,3.21,.45,4.14,1.57,3.9,4.8-.2,2.74-.81,5.39-2.35,7.72-3.35,5.08-7.6,8.89-13.68,10.6-5.56,1.57-11.09,2.66-16.93,2.8-15.82,.39-31.64,1.2-47.45,1.88-9.43,.41-18.85,.91-28.28,1.35-1.27,.06-2.54,0-3.73,0-1.45-1.16-1.03-2.7-1.04-4.08-.09-9.43-.15-18.86-.19-28.29-.2-52.27-.4-104.55-.58-156.82-.03-8.15-.05-16.31,.07-24.46,.04-2.69-.7-4.93-2.18-7.15-4.88-7.31-9.62-14.72-14.39-22.1-.94-1.46-2.07-2.85-2.24-4.6Z"/>
  <path class="cls-1" d="M149.94,411.3c.88-1.67,2.49-1.92,4.08-2.1,9.69-1.06,19.38-2.08,29.07-3.13,6.35-.69,12.7-1.44,19.05-2.15,.6-.07,1.22,0,1.85,0,.2,.6,.49,1.04,.47,1.48-2.72,83.8-5.47,167.6-8.21,251.27-3.74,1.57-22.13,4.42-26.87,4.16-.05-1.86-.14-3.76-.14-5.65-.04-19.49-.04-38.99-.1-58.48-.1-34.83-.23-69.66-.35-104.5-.05-15.5-.16-31-.11-46.49,0-2.84-.64-5.22-2.22-7.61-4.95-7.45-9.72-15.02-14.51-22.58-.83-1.31-2.09-2.46-2.02-4.22Z"/>
  <path class="cls-1" d="M413,411.63c1.56-2.23,3.46-2.13,5.14-2.36,5.39-.74,10.78-1.4,16.18-2,10.33-1.14,20.66-2.23,31-3.33,.61-.07,1.23-.06,2.15-.1,.09,1.37,.28,2.61,.24,3.83-.33,10.86-.7,21.73-1.06,32.59-.4,12.14-.83,24.27-1.19,36.41-.64,21.4-1.19,42.81-1.87,64.21-.33,10.38-.91,20.75-1.29,31.13-.41,11.02-.71,22.05-1.06,33.07-.49,15.5-.99,30.99-1.49,46.49-.06,1.74-.17,3.48-.25,5.13-3.73,1.4-18.27,3.85-26.08,4.42-.97-1.41-.6-3.05-.62-4.59-.09-11.35-.13-22.7-.18-34.05-.23-53.87-.46-107.75-.68-161.62-.02-5.12-.09-10.24,.11-15.34,.12-2.89-.76-5.22-2.32-7.58-4.78-7.19-9.42-14.47-14.08-21.73-.94-1.46-1.75-3-2.65-4.57Z"/>
</svg>